<?xml version="1.0" encoding="utf-8"?>
<!-- Generator: Adobe Illustrator 21.0.0, SVG Export Plug-In . SVG Version: 6.00 Build 0)  -->
<svg version="1.1" id="Layer_1" xmlns="http://www.w3.org/2000/svg" xmlns:xlink="http://www.w3.org/1999/xlink" x="0px" y="0px"
	 width="1400px" height="980px" viewBox="0 0 1400 980" enable-background="new 0 0 1400 980" xml:space="preserve">
<rect fill="#516572" width="1400" height="980"/>
<g>
	<g>
		<rect x="628.6" y="746.4" fill="#111111" width="94.3" height="58.4"/>
		<g>
			<path fill="#959899" d="M746.1,869.7l10.8,6.7l3.8,2.4l9.7,6h45.5V856h-6.8c-3.3,0-6.7-0.3-9.9-0.9c-3.7-0.7-7.3-1.8-10.8-3.2
				l-17-6.9l-7.4-3l-4.9-1.7L746.1,869.7z"/>
			<path opacity="0.47" fill="#A8A8A8" d="M760.7,878.8l9.7,6h45.5V856h-6.8c-3.3,0-6.7-0.3-9.9-0.9v4.3c0,10.7-8.7,19.3-19.4,19.3
				H760.7z"/>
			<polygon opacity="0.47" fill="#A8A8A8" points="746.1,869.7 756.9,876.4 771.4,845.1 764,842 759.1,840.4 			"/>
			<path fill="#202121" d="M758.6,878.8v29.5H790c0-2.5,0.7-4.8,1.9-6.8c0.5-0.9,1.2-1.7,1.9-2.4c2.4-2.4,5.6-3.8,9.2-3.8h21
				c28.7,0,55.7-13.2,73.4-35.7c0.8-1.1,1.2-2.3,1.2-3.5c0-3-2.3-5.8-5.7-5.8h-83.7v9.2c0,10.7-8.7,19.3-19.3,19.3H758.6z"/>
			<path fill="#2E3030" d="M758.6,901.5v6.8H790c0-2.5,0.7-4.8,1.9-6.8H758.6z"/>
		</g>
		<path fill="#959899" d="M612,869.7l-10.8,6.7l-3.8,2.4l-9.7,6h-45.5V856h6.8c3.3,0,6.7-0.3,9.9-0.9c3.7-0.7,7.3-1.8,10.8-3.2
			l17-6.9l7.4-3l4.9-1.7L612,869.7z"/>
		<path opacity="0.47" fill="#A8A8A8" d="M597.3,878.8l-9.7,6h-45.5V856h6.8c3.3,0,6.7-0.3,9.9-0.9v4.3c0,10.7,8.7,19.3,19.4,19.3
			H597.3z"/>
		<polygon opacity="0.47" fill="#A8A8A8" points="612,869.7 601.1,876.4 586.6,845.1 594,842 598.9,840.4 		"/>
		<path fill="#202121" d="M599.4,878.8v29.5h-31.4c0-2.5-0.7-4.8-1.9-6.8c-0.5-0.9-1.2-1.7-1.9-2.4c-2.4-2.4-5.6-3.8-9.2-3.8h-21
			c-28.7,0-55.7-13.2-73.4-35.7c-0.8-1.1-1.2-2.3-1.2-3.5c0-3,2.3-5.8,5.7-5.8h83.7v9.2c0,10.7,8.7,19.3,19.3,19.3H599.4z"/>
		<g>
			<g>
				<path fill="#FFB9A1" d="M999,603.3c-0.8,0.8-1.6,1.7-2.5,2.5l18.6,35.2c3.5-2.5,6.7-4.8,9.5-6.8c5-3.6,7.9-5.6,7.9-5.6l0,0
					l22.5-16.3c0,0,0.1,0,0.1,0c0.8-0.5,19.6-12,30-31.1c0.1-0.3,0.2-0.5,0.3-0.7c1.1-2.8,0-6-2.7-7.5c0,0,0,0,0,0
					c-2.9-1.6-6.6-0.5-8.2,2.4c-5.9,10.8-15.2,18.9-20.9,23.2l-1.6-1.8c5.4-5.9,13-16.1,19.3-32.2c0.8-2,1.5-4,2.3-6.1
					c1-2.8-0.3-5.8-2.8-7.2c-0.3-0.2-0.6-0.3-1-0.5c-3.2-1.1-6.5,0.5-7.7,3.8c-5.8,17.2-13.4,27.7-18.4,33.4l-1.2-1.3
					c1.8-2.8,3.8-6.6,5.6-11.1c3.7-9.3,6.2-21.8,2.9-36.1c-0.6-2.8-3.1-4.7-5.9-4.7h0c-0.5,0-0.9,0-1.3,0.2c-3.3,0.8-5.3,4-4.6,7.2
					c3.4,15-1.3,27.7-5.4,35.3l-2.2-2.4c1.5-4.9,3.5-13.7,0.8-22.1c-2.1-6.5-7.3-11.3-13.9-12.8c-7.4-1.7-15.4,0.9-21,6.8
					c-2.3,2.4-2.2,6.3,0.2,8.6c0,0,0,0,0.1,0c2.4,2.3,6.2,2.1,8.5-0.3c2.6-2.8,6.3-4,9.5-3.3c1.4,0.3,4,1.4,5.1,4.6
					c0.8,2.7,0.9,5.6,0.6,8.2c-0.2,0.9-0.5,1.9-0.8,2.8c-2.6,9-8.5,17.5-14.4,26.1c0,0,0,0-0.1-0.1c-3.4-3-9-10.3-5.2-23.7
					c0.9-3.3-1-6.6-4.2-7.5c-0.5-0.2-1.1-0.2-1.6-0.2c0,0,0,0,0,0c-2.6,0-5,1.7-5.8,4.4C984.1,585.3,992,597.6,999,603.3z"/>
				<path opacity="0.54" fill="#E09480" d="M1053.7,598.5c0,0-2.8,3.6-8.9,5.4c-6.1,1.7-22.3-1.4-25.6,16.4c0,0,5.6-15.4-12.9-26.6
					c0,0,6.1,3.5,12.6,0C1025.3,590.1,1035.2,582.5,1053.7,598.5z"/>
				<path opacity="0.54" fill="#E09480" d="M997.8,555.5c2.4,2.3,6.2,2.1,8.5-0.3c2.6-2.8,6.3-4,9.5-3.3c1.4,0.3,4,1.4,5.1,4.6
					c0.8,2.7,0.9,5.6,0.6,8.2c-0.2,0.9-0.5,1.9-0.8,2.8c0,0,0-0.1,0.1-0.1c10.2-18.6-10.8-22.9-15.4-16.4
					C1001.3,556.8,998.3,555.8,997.8,555.5z"/>
				<path opacity="0.54" fill="#E09480" d="M995.9,574.4c-4.1,10.2,8.9,18.3,10.3,19.2c-3.4-3-9-10.3-5.2-23.7
					c0.9-3.3-1-6.6-4.2-7.5c-0.5-0.2-1.1-0.2-1.6-0.2C995.7,562.3,999.9,564.2,995.9,574.4z"/>
				<path opacity="0.54" fill="#E09480" d="M1039.6,583.4l3,3.2c1.8-2.8,3.8-6.6,5.6-11.1c3.7-9.3,6.2-21.8,2.9-36.1
					c-0.6-2.8-3.1-4.7-5.9-4.7h0C1054.9,560.7,1039.6,583.4,1039.6,583.4z"/>
				<path opacity="0.54" fill="#E09480" d="M1049.6,594.1l2.5,2.6c5.4-5.9,13-16.1,19.3-32.2c0.8-2,1.5-4,2.3-6.1
					c1-2.8-0.3-5.8-2.8-7.2C1072.5,565.2,1049.6,594.1,1049.6,594.1z"/>
				<path opacity="0.54" fill="#E09480" d="M996.6,605.8l18.6,35.2c3.5-2.5,6.7-4.8,9.5-6.8c5-3.6,7.9-5.6,7.9-5.6l0,0l22.5-16.3
					c0,0,0.1,0,0.1,0c0.8-0.5,19.6-12,30-31.1c0.1-0.3,0.2-0.5,0.3-0.7c1.1-2.8,0-6-2.7-7.5c0.3,0.5,3.3,5.1-7.1,15.8
					c-11,11.3-26.3,21.6-35.1,29.6c-4,3.7-8.6,7.1-12.3,9.7c-4.2,2.9-9.9,1.9-12.9-2.2L999,603.3C998.2,604.2,997.4,605,996.6,605.8
					z"/>
			</g>
			<path fill="#122833" d="M742.2,467.3l42.5,116.8c0,0,24.6,58,78.4,93.6c38.2,25.2,99.8-1.6,132.4-19.4h0
				c13.3-7.3,21.8-13,21.8-13l-23.5-44.5c0,0-2.7,2.7-21.3,11.4c-10.8,5.1-27.1,12.2-51.5,22.1c-46.4,18.8-93.6-71.7-117.4-126.8
				c-10.5-24.4-34.6-40.2-61.2-40.2H742.2z"/>
			<path fill="#EFF6F9" d="M972.7,612.2l22.9,46.1h0c13.3-7.3,21.8-13,21.8-13l-23.5-44.5C993.9,600.8,991.2,603.6,972.7,612.2z"/>
			<g>
				<path fill="#FFB9A1" d="M360.3,603.3c0.8,0.8,1.6,1.7,2.5,2.5L344.1,641c-3.5-2.5-6.7-4.8-9.5-6.8c-5-3.6-7.9-5.6-7.9-5.6l0,0
					l-22.5-16.3c0,0-0.1,0-0.1,0c-0.8-0.5-19.6-12-30-31.1c-0.1-0.3-0.2-0.5-0.3-0.7c-1.1-2.8,0-6,2.7-7.5c0,0,0,0,0,0
					c2.9-1.6,6.6-0.5,8.2,2.4c5.9,10.8,15.2,18.9,20.9,23.2l1.6-1.8c-5.4-5.9-13-16.1-19.3-32.2c-0.8-2-1.5-4-2.3-6.1
					c-1-2.8,0.3-5.8,2.8-7.2c0.3-0.2,0.6-0.3,1-0.5c3.2-1.1,6.5,0.5,7.7,3.8c5.8,17.2,13.4,27.7,18.4,33.4l1.2-1.3
					c-1.8-2.8-3.8-6.6-5.6-11.1c-3.7-9.3-6.2-21.8-2.9-36.1c0.6-2.8,3.1-4.7,5.9-4.7h0c0.5,0,0.9,0,1.3,0.2c3.3,0.8,5.3,4,4.6,7.2
					c-3.4,15,1.3,27.7,5.4,35.3l2.2-2.4c-1.5-4.9-3.5-13.7-0.8-22.1c2.1-6.5,7.3-11.3,13.9-12.8c7.4-1.7,15.4,0.9,21,6.8
					c2.3,2.4,2.2,6.3-0.2,8.6c0,0,0,0-0.1,0c-2.4,2.3-6.2,2.1-8.5-0.3c-2.6-2.8-6.3-4-9.5-3.3c-1.4,0.3-4,1.4-5.1,4.6
					c-0.8,2.7-0.9,5.6-0.6,8.2c0.2,0.9,0.5,1.9,0.8,2.8c2.6,9,8.5,17.5,14.4,26.1c0,0,0,0,0.1-0.1c3.4-3,9-10.3,5.2-23.7
					c-0.9-3.3,1-6.6,4.2-7.5c0.5-0.2,1.1-0.2,1.6-0.2c0,0,0,0,0,0c2.6,0,5,1.7,5.8,4.4C375.2,585.3,367.3,597.6,360.3,603.3z"/>
				<path opacity="0.54" fill="#E09480" d="M305.6,598.5c0,0,2.8,3.6,8.9,5.4c6.1,1.7,22.3-1.4,25.6,16.4c0,0-5.6-15.4,12.9-26.6
					c0,0-6.1,3.5-12.6,0C334,590.1,324,582.5,305.6,598.5z"/>
				<path opacity="0.54" fill="#E09480" d="M361.5,555.5c-2.4,2.3-6.2,2.1-8.5-0.3c-2.6-2.8-6.3-4-9.5-3.3c-1.4,0.3-4,1.4-5.1,4.6
					c-0.8,2.7-0.9,5.6-0.6,8.2c0.2,0.9,0.5,1.9,0.8,2.8c0,0,0-0.1-0.1-0.1c-10.2-18.6,10.8-22.9,15.4-16.4
					C358,556.8,361,555.8,361.5,555.5z"/>
				<path opacity="0.54" fill="#E09480" d="M363.4,574.4c4.1,10.2-8.9,18.3-10.3,19.2c3.4-3,9-10.3,5.2-23.7c-0.9-3.3,1-6.6,4.2-7.5
					c0.5-0.2,1.1-0.2,1.6-0.2C363.6,562.3,359.3,564.2,363.4,574.4z"/>
				<path opacity="0.54" fill="#E09480" d="M319.7,583.4l-3,3.2c-1.8-2.8-3.8-6.6-5.6-11.1c-3.7-9.3-6.2-21.8-2.9-36.1
					c0.6-2.8,3.1-4.7,5.9-4.7h0C304.4,560.7,319.7,583.4,319.7,583.4z"/>
				<path opacity="0.54" fill="#E09480" d="M309.7,594.1l-2.5,2.6c-5.4-5.9-13-16.1-19.3-32.2c-0.8-2-1.5-4-2.3-6.1
					c-1-2.8,0.3-5.8,2.8-7.2C286.8,565.2,309.7,594.1,309.7,594.1z"/>
				<path opacity="0.54" fill="#E09480" d="M362.7,605.8L344.1,641c-3.5-2.5-6.7-4.8-9.5-6.8c-5-3.6-7.9-5.6-7.9-5.6l0,0l-22.5-16.3
					c0,0-0.1,0-0.1,0c-0.8-0.5-19.6-12-30-31.1c-0.1-0.3-0.2-0.5-0.3-0.7c-1.1-2.8,0-6,2.7-7.5c-0.3,0.5-3.3,5.1,7.1,15.8
					c11,11.3,26.3,21.6,35.1,29.6c4,3.7,8.6,7.1,12.3,9.7c4.2,2.9,9.9,1.9,12.9-2.2l16.5-22.4C361.1,604.2,361.9,605,362.7,605.8z"
					/>
			</g>
			<path fill="#122833" d="M617.1,467.3l-42.5,116.8c0,0-24.6,58-78.4,93.6c-38.2,25.2-99.8-1.6-132.4-19.4h0
				c-13.3-7.3-21.8-13-21.8-13l23.5-44.5c0,0,2.7,2.7,21.3,11.4c10.8,5.1,27.1,12.2,51.5,22.1c46.4,18.8,93.6-71.7,117.4-126.8
				c10.5-24.4,34.6-40.2,61.2-40.2H617.1z"/>
			<path fill="#EFF6F9" d="M386.6,612.2l-22.9,46.1h0c-13.3-7.3-21.8-13-21.8-13l23.5-44.5C365.4,600.8,368.1,603.6,386.6,612.2z"/>
			<path opacity="0.47" fill="#A8A8A8" d="M607.5,468.1l-33,90.5c0,0-24.6,58-78.4,93.6c-38.2,25.2-99.8-1.6-132.4-19.4h0
				c-4.5-2.5-8.4-4.7-11.7-6.7l-10.2,19.3c0,0,8.5,5.7,21.8,13h0c32.6,17.7,94.2,44.6,132.4,19.4c53.8-35.6,78.4-93.6,78.4-93.6
				l42.5-116.8h-0.4C613.6,467.5,610.5,467.7,607.5,468.1z"/>
			<path opacity="0.47" fill="#A8A8A8" d="M751.8,468.1l33,90.5c0,0,24.6,58,78.4,93.6c38.2,25.2,99.8-1.6,132.4-19.4h0
				c4.5-2.5,8.4-4.7,11.7-6.7l10.2,19.3c0,0-8.5,5.7-21.8,13h0c-32.6,17.7-94.2,44.6-132.4,19.4c-53.8-35.6-78.4-93.6-78.4-93.6
				l-42.5-116.8h0.4C745.7,467.5,748.8,467.7,751.8,468.1z"/>
			<path fill="#162E3D" d="M742.2,467.3h-62.6h-62.6c-25.2,0-45.7,20.5-45.7,45.7v262.5h108.3h108.3V513
				C787.9,487.8,767.5,467.3,742.2,467.3z"/>
			<path opacity="0.79" fill="#A8A8A8" d="M617.7,467.3l1,29.6l15.7,12.9c0,0,3.9-3.4,4-4.8s-1.6-22.7-1.7-23.4
				c-0.2-0.7-7.9-9.8-8.6-10c-0.7-0.3-6.5-3.7-6.5-3.7l-0.3-0.7H617.7z"/>
			<path opacity="0.79" fill="#A8A8A8" d="M625.1,523.8L623,527l56.3,92.6l-21.8-53.8c0,0-18-38-18.7-39.6s-6.1-6.9-6.1-6.9
				L625.1,523.8z"/>
			<path opacity="0.79" fill="#A8A8A8" d="M741.6,467.3l-1,29.6l-15.7,12.9c0,0-3.9-3.4-4-4.8s1.6-22.7,1.7-23.4s7.9-9.8,8.6-10
				c0.7-0.3,6.5-3.7,6.5-3.7l0.3-0.7H741.6z"/>
			<path opacity="0.79" fill="#A8A8A8" d="M734.1,523.8l2.2,3.2l-56.3,92.6l21.8-53.8c0,0,18-38,18.7-39.6s6.1-6.9,6.1-6.9
				L734.1,523.8z"/>
			<polygon fill="#D7DFE2" points="725.9,467.3 725.3,468.9 718.5,490.2 679.3,612.1 637.2,485.4 632,470 631.1,467.3 			"/>
			<polygon fill="#2B2B2B" points="646.8,467.3 679.6,492.9 712.5,467.3 			"/>
			<polygon fill="#BF3C3C" points="688.1,515.1 690.4,590.3 680,619.6 679.7,619.3 679.3,619.6 668.9,590.3 671.3,515.1 
				665.6,504.4 679.7,493 693.7,504.4 			"/>
			<polygon fill="#AD3131" points="693.7,504.4 688.1,515.1 671.3,515.1 665.6,504.4 679.7,493 			"/>
			<g opacity="0.47">
				<polygon fill="#A8A8A8" points="679.7,493.6 660.4,516 637.2,485.4 632,470 636.9,467.3 653.9,467.3 				"/>
				<polygon fill="#A8A8A8" points="725.3,468.9 718.5,490.2 698.9,516 679.7,493.6 705.4,467.3 722.4,467.3 				"/>
			</g>
			<g>
				<polygon fill="#EFF6F9" points="679.6,492.9 661.7,511.8 631.1,475.3 647.1,467.3 651.9,467.3 				"/>
				<polygon fill="#EFF6F9" points="679.6,492.9 697.6,511.8 728.2,475.3 712.2,467.3 707.4,467.3 				"/>
			</g>
			<polygon opacity="0.47" fill="#A8A8A8" points="649.4,467.3 679.3,601.7 709.9,467.3 719.9,467.3 679.6,621.1 640,467.7 			"/>
			<g>
				<g>
					<path fill="#1C3C4C" d="M623.6,521.1l10.8-14.8l-13.9-11.5l-1-27.5h27.3l28,131.4c0,0,0,0,0,0l4.5,20.9L623.6,521.1z"/>
				</g>
				<g>
					<polygon fill="#1C3C4C" points="735.7,521.1 724.9,506.3 738.8,494.8 739.8,467.3 712.5,467.3 680,619.6 					"/>
				</g>
			</g>
			<polygon opacity="0.47" fill="#A8A8A8" points="671.3,515.1 679.7,520.8 688.1,515.1 679.7,511.8 			"/>
			<path opacity="0.47" fill="#A8A8A8" d="M637.5,517.3L637.5,517.3c2.7-4.8,3.7-10.5,2.8-16l-5.9-34h12.4l28,131.4l-37.5-70.5
				C635.5,524.8,635.6,520.7,637.5,517.3z"/>
			<path opacity="0.47" fill="#A8A8A8" d="M721.8,517.3L721.8,517.3c-2.7-4.8-3.7-10.5-2.8-16l5.9-34h-12.4l-28,131.4l37.5-70.5
				C723.8,524.8,723.7,520.7,721.8,517.3z"/>
			<polygon opacity="0.47" fill="#A8A8A8" points="571.4,567.5 571.4,639.6 679.3,629.6 			"/>
			<polygon opacity="0.47" fill="#A8A8A8" points="787.9,567.5 787.9,639.6 680,629.6 			"/>
			<polygon opacity="0.47" fill="#A8A8A8" points="680,630.2 787.9,658.1 787.9,693.4 			"/>
			<polygon opacity="0.47" fill="#A8A8A8" points="679.3,630.2 571.4,658.1 571.4,693.4 			"/>
			<circle opacity="0.47" fill="#A8A8A8" cx="679.6" cy="630.7" r="11.6"/>
			<circle opacity="0.47" fill="#A8A8A8" cx="679.6" cy="659.8" r="11.6"/>
			<circle fill="#F4CB56" cx="679.6" cy="628.7" r="8.3"/>
			<circle fill="#D8AB3A" cx="679.6" cy="628.7" r="5.9"/>
			<circle fill="#F4CB56" cx="679.6" cy="657.5" r="8.3"/>
			<circle fill="#D8AB3A" cx="679.6" cy="657.5" r="5.9"/>
		</g>
		<path fill="#0E2128" d="M905,741.4l-151.7,70.3l-80.2,37.2l-62.5,28.9l-23.3-50.3l19.9-9.2l80.1-37.2l194.4-90.1
			c3.8-1.8,7.7-2.6,11.6-2.6c10.5,0,20.5,6,25.1,16.1C924.9,718.6,918.9,735,905,741.4z"/>
		<polygon fill="#A8A8A8" points="753.2,811.8 673.1,848.9 607.2,818.4 687.3,781.2 		"/>
		<path fill="#0E232B" d="M772,827.6l-6.6,14.3l-16.7,36l-24.4-11.3l-270-125.2c-13.5-6.2-19.6-22-14-35.6c0.2-0.4,0.3-0.8,0.5-1.1
			c4.7-10.1,14.7-16.1,25.2-16.1c3.9,0,7.8,0.8,11.6,2.6l267.8,124.1L772,827.6z"/>
		<path fill="#122833" d="M765.4,841.9l-16.7,36l-24.4-11.3l-270-125.2c-13.5-6.2-19.6-22-14-35.6c3-1,6.2-1.5,9.4-1.5
			c4,0,8.1,0.8,12,2.6l279,124.1L765.4,841.9z"/>
		<path fill="#2E3030" d="M599.4,901.5v6.8h-31.4c0-2.5-0.7-4.8-1.9-6.8H599.4z"/>
		<polygon fill="#111111" points="679.1,728.3 667.2,775.6 692.9,775.6 		"/>
		<polygon fill="#FFB9A1" points="706.9,423.4 706.9,467.6 706.8,467.8 679.5,493 679.3,492.7 651.7,467.3 651.6,467.3 651.6,423.4 
					"/>
		<path opacity="0.62" fill="#A8A8A8" d="M679.3,423.4h-27.7v31.1c0.7,0,1.4,0,2,0h25.6v38.2l0.2,0.2l27.3-25.2l0.1-0.1v-18.8v-25.5
			H679.3z"/>
		<polygon opacity="0.69" fill="#A8A8A8" points="706.8,467.8 679.5,493 651.7,467.3 679.3,487.5 		"/>
		<g>
			<circle fill="#ED9B85" cx="611.9" cy="381.3" r="17.6"/>
			<path fill="#AF6152" d="M611,390.7c0.9,0,1.7-0.1,2.5-0.4v-18.2c-0.8-0.2-1.7-0.4-2.5-0.4c-5.2,0-9.5,4.2-9.5,9.5
				C601.6,386.5,605.8,390.7,611,390.7z"/>
			<path fill="#2B2B2B" d="M674,337.2c0,0-11.4-38-46.1-38c-34.7,0-25.1,67.1-25.1,67.1s2.1,11.2,9.1,13.6c4.5,1.6,5.5-6.4,5.6-12.3
				C639.1,361.9,674,337.2,674,337.2z"/>
			<polygon fill="#323232" points="594.3,359.1 594.3,364.3 618.8,364.6 615.5,359.1 			"/>
			<path fill="#FFB9A1" d="M726.3,344.5v69.1c0,10.9-5.5,20.7-14.3,27.4c-7.3,5.6-16.9,9-27.4,9h-31c-3.2,0-6.4-0.3-9.4-0.9
				c-6.4-1.3-12.3-3.9-17.2-7.4c-9.2-6.6-15.1-16.7-15.1-28v-69.1c0-2.4,0.3-4.7,0.8-6.9c0.9-4,2.5-7.7,4.7-11.1
				c7.2-10.9,20.7-18.3,36.2-18.3h31c1.7,0,3.4,0.1,5,0.3c5.4,0.6,10.5,2,15.1,4.2C717.6,318.8,726.3,330.8,726.3,344.5z"/>
			<path fill="#E09480" d="M642.1,389.3c0,0,8.2,15.1,15-0.3L642.1,389.3z"/>
			<path opacity="0.54" fill="#E09480" d="M726.3,344.5v69.1c0,10.9-5.5,20.7-14.3,27.4c-7.3,5.6-16.9,9-27.4,9h-27.2l-4.5-14.1
				h28.5c6,0,10.9-4.9,10.9-10.9v-26.1c0-2.7,1.4-5.2,3.7-6.5l0,0c4.9-2.8,7.8-8,7.8-13.6v-53.8l-14.3-16.4c5.4,0.6,10.5,2,15.1,4.2
				C717.6,318.8,726.3,330.8,726.3,344.5z"/>
			<path opacity="0.54" fill="#E09480" d="M663.7,435.8l-4.5,14.1h-5.7c-3.2,0-6.4-0.3-9.4-0.9c-6.4-1.3-12.3-3.9-17.2-7.4
				c-9.2-6.6-15.1-16.7-15.1-28v-69.1c0-2.4,0.3-4.7,0.8-6.9v41.1c0,2.8,0.8,5.5,2.1,7.9c1.4,2.3,3.3,4.3,5.7,5.8
				c2.3,1.3,3.7,3.8,3.7,6.5v26.1c0,6,4.9,10.9,10.9,10.9H663.7z"/>
			<circle opacity="0.71" fill="#E09480" cx="678.1" cy="368.8" r="8.1"/>
			<circle opacity="0.71" fill="#E09480" cx="631.3" cy="368.8" r="8.1"/>
			<circle fill="#302B2A" cx="679.8" cy="367.5" r="5.8"/>
			<circle fill="#302B2A" cx="632.9" cy="367.5" r="5.8"/>
			<path fill="#E09480" d="M639.5,405.9c0,0,13.2,23.6,31.6,0H639.5z"/>
			<path fill="#3A3A3A" d="M668.2,397.1c-2.1-0.5-4.3-0.8-6.6-0.8h-12.9c-2,0-4,0.2-5.9,0.6c-9.1,1.9-15.8,8.1-15.8,15.5v29.7
				c0,8.9,9.7,16.1,21.6,16.1h12.9c12,0,21.6-7.2,21.6-16.1v-29.7C683.2,405.3,676.9,399.2,668.2,397.1z M641.7,411.4
				c0-2.3,2.5-4.2,5.6-4.2h16.1c3.1,0,5.6,1.9,5.6,4.2v17.1H664c-1.8,0-3.4-0.8-4-2.1l-4.2-8.5c-0.4-0.7-1.3-1.2-2.4-1.2
				c-1.2,0-2.2,0.6-2.5,1.4l-3.1,8.6c-0.5,1.4-2.2,2.4-4.2,2.4h-1.9V411.4z"/>
			<g>
				<path fill="#2B2B2B" d="M661.6,449.1h-12.9c-12,0-21.6-7.2-21.6-16.1v9.1c0,8.9,9.7,16.1,21.6,16.1h12.9
					c12,0,21.6-7.2,21.6-16.1V433C683.2,441.9,673.5,449.1,661.6,449.1z"/>
				<path fill="#2B2B2B" d="M663.5,398.2h-16.1c-3.1,0-5.6,1.9-5.6,4.2v9.1c0-2.3,2.5-4.2,5.6-4.2h16.1c3.1,0,5.6,1.9,5.6,4.2v-9.1
					C669.1,400,666.6,398.2,663.5,398.2z"/>
			</g>
			<path fill="#2B2B2B" d="M667.2,354.4c5.5-1.7,15.2-3.5,26.8,0.2c2.4,0.7,4.7-1,4.7-3.5v-2.5c0-1.7-1.1-3.1-2.7-3.5
				c-4.8-1.3-15.6-3.2-30.7,0.2c-1.7,0.4-2.9,1.9-2.9,3.6v2.1C662.4,353.4,664.8,355.2,667.2,354.4z"/>
			<path fill="#2B2B2B" d="M617.6,354.4c5.5-1.7,15.2-3.5,26.8,0.2c2.4,0.7,4.7-1,4.7-3.5v-2.5c0-1.7-1.1-3.1-2.7-3.5
				c-4.8-1.3-15.6-3.2-30.7,0.2c-1.7,0.4-2.9,1.9-2.9,3.6v2.1C612.8,353.4,615.2,355.2,617.6,354.4z"/>
			<path fill="#3A3A3A" d="M738.7,325.6v43.2c-3.2-3.2-7.6-5.1-12.4-5.1c-9.7,0-17.6,7.9-17.6,17.6v-20.6c0-5-3.9-9.2-8.9-9.4
				c-12.1-0.6-22.1-2.3-30.6-4.9c0,0-0.1,0-0.1,0c-42.9-13.3-42.6-48.5-40.7-62.3c0.5-3.2,3.2-5.7,6.5-5.7h56.5
				c7.8,0,15.2,1.9,21.7,5.3c0.3,0.1,0.6,0.3,1,0.5c8.9,4.9,16.1,12.6,20.3,21.9C737.2,312,738.7,318.6,738.7,325.6z"/>
			<path fill="#3A3A3A" d="M738.7,325.6v43.2c-3.2-3.2-7.6-5.1-12.4-5.1c-9.7,0-17.6,7.9-17.6,17.6v-20.6c0-5-3.9-9.2-8.9-9.4
				c-12.1-0.6-22.1-2.3-30.6-4.9c1.8,0.5,40.1,10.4,53.3-1.2c8.7-7.7,16.6-24,12-39C737.2,312,738.7,318.6,738.7,325.6z"/>
			<circle fill="#FFFFFF" cx="681.1" cy="364.9" r="2.1"/>
			<circle fill="#FFFFFF" cx="634.5" cy="364.9" r="2.1"/>
			<path opacity="0.4" fill="#FFFFFF" d="M634.4,388.4c-3.2,3.6-7.3,6-11.8,7c-3.1,0.7-6.4,0.7-9.7,0c-0.8-0.2-1.6-0.4-2.4-0.7
				c-0.1,0-0.2-0.1-0.4-0.1c-3.2-1.2-5.5-2.9-7.3-5c-3-3.5-4.2-7.8-5-11c-1.2-5-1.8-13.8,2.5-17.3c3.7-3.1,10.8-3.5,15.5-3.7
				c0.7,0,1.4,0,2-0.1c1.7-0.1,4.5,0.1,7.5,0.5c0.8,0.1,1.7,0.3,2.5,0.4c3,0.6,6.1,1.6,8.5,3c1.4,0.9,2.6,1.9,3.4,3.1
				C643.3,370.5,640.3,381.8,634.4,388.4z"/>
			<path opacity="0.4" fill="#FFFFFF" d="M701.1,378.6c-1.2,4.6-3.2,11.6-10.5,15.2c-0.6,0.3-1.2,0.5-1.8,0.8
				c-3.4,1.3-7,1.6-10.4,1.2c-1.1-0.1-2.3-0.4-3.4-0.7c-3.3-0.9-6.4-2.7-9-5.1c-0.5-0.5-1.1-1-1.6-1.6c-5.9-6.6-8.9-17.9-5.3-23.8
				c3.5-5.9,17.3-7.3,21.9-7.1c0.2,0,0.4,0,0.6,0c2.9,0.1,7.1,0.2,10.9,1.1c0.9,0.2,1.7,0.4,2.5,0.7c1.3,0.5,2.5,1.1,3.5,1.9
				c2.1,1.7,3,4.7,3.3,7.9C702.2,372.5,701.7,376,701.1,378.6z"/>
			<path opacity="0.13" fill="#BCBCBC" d="M636.4,361.5l-13.8,33.9c-3.1,0.7-6.4,0.7-9.7,0c-0.8-0.2-1.6-0.4-2.4-0.7l14.9-36.6
				c0.8,0.1,1.7,0.3,2.5,0.4C630.9,359.1,634,360.1,636.4,361.5z"/>
			<path opacity="0.32" fill="#BCBCBC" d="M627.9,358.5l-15,36.9c-0.8-0.2-1.6-0.4-2.4-0.7c-0.1,0-0.2-0.1-0.4-0.1
				c-3.2-1.2-5.5-2.9-7.3-5l13-32c0.7,0,1.4,0,2-0.1c1.7-0.1,4.5,0.1,7.5,0.5C626.2,358.2,627,358.3,627.9,358.5z"/>
			<path opacity="0.32" fill="#BCBCBC" d="M695.1,359.4l-16.8,36.4c-1.1-0.1-2.3-0.4-3.4-0.7c-3.3-0.9-6.4-2.7-9-5.1l15.7-32.5
				c2.9,0.1,7.1,0.2,10.9,1.1C693.5,358.8,694.3,359.1,695.1,359.4z"/>
			<path opacity="0.32" fill="#BCBCBC" d="M701.9,369.2l-11.3,24.6c-0.6,0.3-1.2,0.5-1.8,0.8c-3.4,1.3-7,1.6-10.4,1.2
				c-1.1-0.1-2.3-0.4-3.4-0.7l17.6-36.4c0.9,0.2,1.7,0.4,2.5,0.7c1.3,0.5,2.5,1.1,3.5,1.9C700.7,363,701.6,366,701.9,369.2z"/>
			<path fill="#323232" d="M729.2,362.8l-1.3-3c-0.2-0.5-0.6-0.7-1.1-0.7h-19.3c0,0-1.9-0.2-4.2-0.5c-2.3-0.3-12.8-3.1-19.2-3.1
				c-10,0-13.7,0.8-18.4,2.2c-4.7,1.4-7.4,3.3-8.7,3.1c-1.4-0.2-5.1-0.8-7.5-0.8c-2.4,0-6.1,0.6-7.5,0.8s-4-1.7-8.8-3.1
				c-4.7-1.4-8.4-2.2-18.5-2.2c-6.4,0-17.1,2.8-19.3,3.1c-2.3,0.3-4.4,0.5-4.4,0.5v5.2c0,0,2.1,0.2,2.6,2.4
				c0.5,2.2,0.9,11.5,3.2,17.2c2.7,6.5,6.9,11.2,14.3,13.3c7.4,2.1,15.2,0.6,20.2-2.9c3.8-2.6,7.3-6.4,10-11.7
				c3.4-6.8,4.3-12.7,4.3-12.7s-0.2-0.2-0.3-0.5c0.1,0.2,0.2,0.3,0.3,0.5c0,0,3.3-2.2,7.7,0c0,0,1,5.9,4.3,12.7
				c2.7,5.3,6.2,9.2,9.9,11.7c5,3.4,12.8,4.9,20.2,2.9s11.6-6.8,14.3-13.3c2.4-5.7,2.6-15.1,3.1-17.2c0.5-2.2,2.4-2.4,2.4-2.4
				l20.6,0.2C729,364.5,729.6,363.6,729.2,362.8z M634.4,388.4c-6,6.8-15.5,9.3-24.3,6.1c-8.8-3.2-11.1-11-12.3-15.9
				c-1.2-5-1.8-13.8,2.5-17.3c4.3-3.5,13.1-3.6,17.5-3.7c4.7-0.2,18.4,1.2,21.9,7.1C643.3,370.5,640.3,381.8,634.4,388.4z
				 M701.1,378.6c-1.2,5-3.5,12.7-12.3,15.9c-8.8,3.2-18.3,0.7-24.3-6.1c-5.9-6.6-8.9-17.9-5.3-23.8c3.5-5.9,17.3-7.3,21.9-7.1
				c4.5,0.2,13.3,0.2,17.5,3.7C702.8,364.8,702.3,373.6,701.1,378.6z"/>
			<path fill="#FFB9A1" d="M729,363.9c-0.8-0.1-1.7-0.2-2.5-0.2c-2.7,0-5,2.2-5,4.9v25.3c0,2.6,2,4.9,4.7,4.9c0,0,0,0,0,0
				c9.4,0,17.1-7.5,17.5-16.8C744.2,373.3,737.6,365.4,729,363.9z"/>
			<path fill="#AF6152" d="M729.2,371.8c-0.9,0-1.7,0.1-2.5,0.4v18.2c0.8,0.2,1.7,0.4,2.5,0.4c5.2,0,9.5-4.2,9.5-9.5
				C738.7,376,734.4,371.8,729.2,371.8z"/>
			<path fill="#CE5555" d="M652.3,391.9H647c-1.5,0-2.8-0.5-3.8-1.3c-1.5-1.3-2.4-3.3-1.9-5.5l2.6-12.4c0.5-2.6,2.9-4.5,5.7-4.5
				c0.4,0,0.8,0,1.1,0.1c0.9,0.2,1.8,0.6,2.5,1.2c1,0.8,1.7,1.9,2,3.2l2.6,12.4C658.7,388.6,655.9,391.9,652.3,391.9z"/>
			<path fill="#E86464" d="M649.6,390.6h-5.2c-0.4,0-0.8,0-1.1-0.1c-1.5-1.3-2.4-3.3-1.9-5.5l2.6-12.4c0.5-2.6,2.9-4.5,5.7-4.5
				c0.4,0,0.8,0,1.1,0.1c0.9,0.8,1.6,1.9,1.9,3.2l2.6,12.4C656,387.3,653.3,390.6,649.6,390.6z"/>
		</g>
	</g>
	<g>
		<g>
			<path fill="#2C2F30" d="M940.2,416.7v104.6c0,3.9-3.2,7-7.1,7H880c-3.9,0-7.1-3.2-7.1-7V416.7c0-3.9,3.2-7.1,7.1-7.1h53.1
				C937.1,409.6,940.2,412.8,940.2,416.7z"/>
			<rect x="874.9" y="422.6" fill="#779096" width="63.4" height="92.4"/>
			<path fill="#FFFFFF" d="M915.5,417.3h-17.7c-0.6,0-1-0.4-1-1l0,0c0-0.6,0.4-1,1-1h17.7c0.6,0,1,0.4,1,1l0,0
				C916.5,416.8,916.1,417.3,915.5,417.3z"/>
			<path fill="#FFFFFF" d="M913.5,524.2h-13.7c-0.8,0-1.4-0.6-1.4-1.4v-2.2c0-0.8,0.6-1.4,1.4-1.4h13.7c0.8,0,1.4,0.6,1.4,1.4v2.2
				C914.9,523.5,914.2,524.2,913.5,524.2z"/>
			<polygon opacity="0.16" fill="#FFFFFF" points="930.1,422.6 878.9,514.9 874.9,514.9 874.9,484.9 909.5,422.6 			"/>
			<polygon opacity="0.36" fill="#FFFFFF" points="938.3,422.6 938.3,428.5 890.4,514.9 874.9,514.9 874.9,505.6 921,422.6 			"/>
		</g>
		<path opacity="0.64" fill="#A8A8A8" d="M906.7,409.6v118.7H880c-3.9,0-7.1-3.2-7.1-7V416.7c0-3.9,3.2-7.1,7.1-7.1H906.7z"/>
	</g>
	<g>
		<path fill="#333232" d="M1156.8,286.8h-87.5c-1.1,0-2,0.3-2.9,0.9c-0.8-0.6-1.8-0.9-2.9-0.9H976c-2.8,0-5,2.3-5,5v115.8
			c0,2.8,2.3,5,5,5h87.5c1.1,0,2-0.3,2.9-0.9c0.8,0.6,1.8,0.9,2.9,0.9h87.5c2.8,0,5-2.3,5-5V291.9
			C1161.8,289.1,1159.5,286.8,1156.8,286.8z"/>
		<path fill="#FCFCFC" d="M1151.4,407.1h-76.8c-3.3,0-6-2.7-6-6V298.5c0-3.3,2.7-6,6-6h76.8c3.3,0,6,2.7,6,6V401
			C1157.4,404.4,1154.7,407.1,1151.4,407.1z"/>
		<path fill="#FCFCFC" d="M1064.2,298v103.6c0,3-2.5,5.5-5.5,5.5h-77.9c-3,0-5.5-2.5-5.5-5.5V298c0-3,2.5-5.5,5.5-5.5h77.9
			C1061.7,292.5,1064.2,294.9,1064.2,298z"/>
		<path fill="#C4C4C4" d="M987.9,407.1h-7.1c-3,0-5.5-2.5-5.5-5.5V298c0-3,2.5-5.5,5.5-5.5h7.1c-3,0-5.5,2.5-5.5,5.5v103.6
			C982.4,404.6,984.9,407.1,987.9,407.1z"/>
		<path fill="#C4C4C4" d="M985.3,407.1h-4.4c-3,0-5.5-2.5-5.5-5.5V298c0-3,2.5-5.5,5.5-5.5h4.4c-3,0-5.5,2.5-5.5,5.5v103.6
			C979.8,404.6,982.3,407.1,985.3,407.1z"/>
		<path fill="#C4C4C4" d="M983.4,407.1h-2.5c-3,0-5.5-2.5-5.5-5.5V298c0-3,2.5-5.5,5.5-5.5h2.5c-3,0-5.5,2.5-5.5,5.5v103.6
			C977.9,404.6,980.3,407.1,983.4,407.1z"/>
		<g>
			<path fill="#C4C4C4" d="M1144.9,407.1h7.1c3,0,5.5-2.5,5.5-5.5V298c0-3-2.5-5.5-5.5-5.5h-7.1c3,0,5.5,2.5,5.5,5.5v103.6
				C1150.4,404.6,1147.9,407.1,1144.9,407.1z"/>
			<path fill="#C4C4C4" d="M1147.5,407.1h4.4c3,0,5.5-2.5,5.5-5.5V298c0-3-2.5-5.5-5.5-5.5h-4.4c3,0,5.5,2.5,5.5,5.5v103.6
				C1153,404.6,1150.5,407.1,1147.5,407.1z"/>
			<path fill="#C4C4C4" d="M1149.4,407.1h2.5c3,0,5.5-2.5,5.5-5.5V298c0-3-2.5-5.5-5.5-5.5h-2.5c3,0,5.5,2.5,5.5,5.5v103.6
				C1154.9,404.6,1152.5,407.1,1149.4,407.1z"/>
		</g>
		<circle fill="#334A4F" cx="1074.5" cy="305.2" r="2.9"/>
		<circle fill="#334A4F" cx="1074.5" cy="316.1" r="2.9"/>
		<circle fill="#334A4F" cx="1074.5" cy="326.9" r="2.9"/>
		<circle fill="#334A4F" cx="1074.5" cy="337.7" r="2.9"/>
		<circle fill="#334A4F" cx="1074.5" cy="348.6" r="2.9"/>
		<circle fill="#334A4F" cx="1074.5" cy="359.4" r="2.9"/>
		<circle fill="#334A4F" cx="1074.5" cy="370.3" r="2.9"/>
		<circle fill="#334A4F" cx="1074.5" cy="381.1" r="2.9"/>
		<circle fill="#334A4F" cx="1074.5" cy="392" r="2.9"/>
		<circle fill="#334A4F" cx="1058.5" cy="305.2" r="2.9"/>
		<circle fill="#334A4F" cx="1058.5" cy="316.1" r="2.9"/>
		<circle fill="#334A4F" cx="1058.5" cy="326.9" r="2.9"/>
		<circle fill="#334A4F" cx="1058.5" cy="337.7" r="2.9"/>
		<circle fill="#334A4F" cx="1058.5" cy="348.6" r="2.9"/>
		<circle fill="#334A4F" cx="1058.5" cy="359.4" r="2.9"/>
		<circle fill="#334A4F" cx="1058.5" cy="370.3" r="2.9"/>
		<circle fill="#334A4F" cx="1058.5" cy="381.1" r="2.9"/>
		<circle fill="#334A4F" cx="1058.5" cy="392" r="2.9"/>
		<path fill="#CECECC" d="M1073,306.7h-13c-0.8,0-1.5-0.7-1.5-1.5v-0.1c0-0.8,0.7-1.5,1.5-1.5h13c0.8,0,1.5,0.7,1.5,1.5v0.1
			C1074.4,306.1,1073.8,306.7,1073,306.7z"/>
		<path fill="#CECECC" d="M1073,317.6h-13c-0.8,0-1.5-0.7-1.5-1.5V316c0-0.8,0.7-1.5,1.5-1.5h13c0.8,0,1.5,0.7,1.5,1.5v0.1
			C1074.4,316.9,1073.8,317.6,1073,317.6z"/>
		<path fill="#CECECC" d="M1073,328.4h-13c-0.8,0-1.5-0.7-1.5-1.5v-0.1c0-0.8,0.7-1.5,1.5-1.5h13c0.8,0,1.5,0.7,1.5,1.5v0.1
			C1074.4,327.8,1073.8,328.4,1073,328.4z"/>
		<path fill="#CECECC" d="M1073,339.2h-13c-0.8,0-1.5-0.7-1.5-1.5v-0.1c0-0.8,0.7-1.5,1.5-1.5h13c0.8,0,1.5,0.7,1.5,1.5v0.1
			C1074.4,338.6,1073.8,339.2,1073,339.2z"/>
		<path fill="#CECECC" d="M1073,350.1h-13c-0.8,0-1.5-0.7-1.5-1.5v-0.1c0-0.8,0.7-1.5,1.5-1.5h13c0.8,0,1.5,0.7,1.5,1.5v0.1
			C1074.4,349.4,1073.8,350.1,1073,350.1z"/>
		<path fill="#CECECC" d="M1073,360.9h-13c-0.8,0-1.5-0.7-1.5-1.5v-0.1c0-0.8,0.7-1.5,1.5-1.5h13c0.8,0,1.5,0.7,1.5,1.5v0.1
			C1074.4,360.3,1073.8,360.9,1073,360.9z"/>
		<path fill="#CECECC" d="M1073,371.8h-13c-0.8,0-1.5-0.7-1.5-1.5v-0.1c0-0.8,0.7-1.5,1.5-1.5h13c0.8,0,1.5,0.7,1.5,1.5v0.1
			C1074.4,371.1,1073.8,371.8,1073,371.8z"/>
		<path fill="#CECECC" d="M1073,382.6h-13c-0.8,0-1.5-0.7-1.5-1.5v-0.1c0-0.8,0.7-1.5,1.5-1.5h13c0.8,0,1.5,0.7,1.5,1.5v0.1
			C1074.4,382,1073.8,382.6,1073,382.6z"/>
		<path fill="#CECECC" d="M1073,393.5h-13c-0.8,0-1.5-0.7-1.5-1.5v-0.1c0-0.8,0.7-1.5,1.5-1.5h13c0.8,0,1.5,0.7,1.5,1.5v0.1
			C1074.4,392.8,1073.8,393.5,1073,393.5z"/>
		<path fill="#3A3A3A" d="M1052.1,303.7h-63.5c-0.4,0-0.7-0.3-0.7-0.7v0c0-0.4,0.3-0.7,0.7-0.7h63.5c0.4,0,0.7,0.3,0.7,0.7v0
			C1052.8,303.4,1052.5,303.7,1052.1,303.7z"/>
		<path fill="#3A3A3A" d="M1052.1,308.2h-63.5c-0.4,0-0.7-0.3-0.7-0.7l0,0c0-0.4,0.3-0.7,0.7-0.7h63.5c0.4,0,0.7,0.3,0.7,0.7l0,0
			C1052.8,307.8,1052.5,308.2,1052.1,308.2z"/>
		<path fill="#3A3A3A" d="M1052.1,312.6h-63.5c-0.4,0-0.7-0.3-0.7-0.7l0,0c0-0.4,0.3-0.7,0.7-0.7h63.5c0.4,0,0.7,0.3,0.7,0.7l0,0
			C1052.8,312.3,1052.5,312.6,1052.1,312.6z"/>
		<path fill="#3A3A3A" d="M1052.1,317.1h-63.5c-0.4,0-0.7-0.3-0.7-0.7l0,0c0-0.4,0.3-0.7,0.7-0.7h63.5c0.4,0,0.7,0.3,0.7,0.7l0,0
			C1052.8,316.7,1052.5,317.1,1052.1,317.1z"/>
		<path fill="#3A3A3A" d="M1052.1,321.5h-63.5c-0.4,0-0.7-0.3-0.7-0.7l0,0c0-0.4,0.3-0.7,0.7-0.7h63.5c0.4,0,0.7,0.3,0.7,0.7l0,0
			C1052.8,321.2,1052.5,321.5,1052.1,321.5z"/>
		<path fill="#3A3A3A" d="M1052.1,326h-63.5c-0.4,0-0.7-0.3-0.7-0.7v0c0-0.4,0.3-0.7,0.7-0.7h63.5c0.4,0,0.7,0.3,0.7,0.7v0
			C1052.8,325.6,1052.5,326,1052.1,326z"/>
		<path fill="#3A3A3A" d="M1052.1,330.4h-63.5c-0.4,0-0.7-0.3-0.7-0.7l0,0c0-0.4,0.3-0.7,0.7-0.7h63.5c0.4,0,0.7,0.3,0.7,0.7l0,0
			C1052.8,330.1,1052.5,330.4,1052.1,330.4z"/>
		<path fill="#3A3A3A" d="M1052.1,334.9h-63.5c-0.4,0-0.7-0.3-0.7-0.7l0,0c0-0.4,0.3-0.7,0.7-0.7h63.5c0.4,0,0.7,0.3,0.7,0.7l0,0
			C1052.8,334.5,1052.5,334.9,1052.1,334.9z"/>
		<path fill="#3A3A3A" d="M1052.1,339.3h-63.5c-0.4,0-0.7-0.3-0.7-0.7l0,0c0-0.4,0.3-0.7,0.7-0.7h63.5c0.4,0,0.7,0.3,0.7,0.7l0,0
			C1052.8,339,1052.5,339.3,1052.1,339.3z"/>
		<path fill="#3A3A3A" d="M1047.1,355.5h-53.5c-0.4,0-0.7-0.3-0.7-0.7l0,0c0-0.4,0.3-0.7,0.7-0.7h53.5c0.4,0,0.7,0.3,0.7,0.7l0,0
			C1047.9,355.2,1047.5,355.5,1047.1,355.5z"/>
		<path fill="#3A3A3A" d="M1047.1,359.4h-53.5c-0.4,0-0.7-0.3-0.7-0.7l0,0c0-0.4,0.3-0.7,0.7-0.7h53.5c0.4,0,0.7,0.3,0.7,0.7l0,0
			C1047.9,359.1,1047.5,359.4,1047.1,359.4z"/>
		<path fill="#3A3A3A" d="M1047.1,363.2h-53.5c-0.4,0-0.7-0.3-0.7-0.7l0,0c0-0.4,0.3-0.7,0.7-0.7h53.5c0.4,0,0.7,0.3,0.7,0.7l0,0
			C1047.9,362.9,1047.5,363.2,1047.1,363.2z"/>
		<path fill="#3A3A3A" d="M1047.1,367.1h-53.5c-0.4,0-0.7-0.3-0.7-0.7l0,0c0-0.4,0.3-0.7,0.7-0.7h53.5c0.4,0,0.7,0.3,0.7,0.7l0,0
			C1047.9,366.8,1047.5,367.1,1047.1,367.1z"/>
		<path fill="#3A3A3A" d="M1047.1,371h-53.5c-0.4,0-0.7-0.3-0.7-0.7l0,0c0-0.4,0.3-0.7,0.7-0.7h53.5c0.4,0,0.7,0.3,0.7,0.7l0,0
			C1047.9,370.6,1047.5,371,1047.1,371z"/>
		<path fill="#3A3A3A" d="M1047.1,374.8h-53.5c-0.4,0-0.7-0.3-0.7-0.7l0,0c0-0.4,0.3-0.7,0.7-0.7h53.5c0.4,0,0.7,0.3,0.7,0.7l0,0
			C1047.9,374.5,1047.5,374.8,1047.1,374.8z"/>
		<path fill="#3A3A3A" d="M1047.1,378.7h-53.5c-0.4,0-0.7-0.3-0.7-0.7l0,0c0-0.4,0.3-0.7,0.7-0.7h53.5c0.4,0,0.7,0.3,0.7,0.7l0,0
			C1047.9,378.3,1047.5,378.7,1047.1,378.7z"/>
		<path fill="#3A3A3A" d="M1047.1,382.5h-53.5c-0.4,0-0.7-0.3-0.7-0.7l0,0c0-0.4,0.3-0.7,0.7-0.7h53.5c0.4,0,0.7,0.3,0.7,0.7l0,0
			C1047.9,382.2,1047.5,382.5,1047.1,382.5z"/>
		<path fill="#3A3A3A" d="M1047.1,386.4h-53.5c-0.4,0-0.7-0.3-0.7-0.7l0,0c0-0.4,0.3-0.7,0.7-0.7h53.5c0.4,0,0.7,0.3,0.7,0.7l0,0
			C1047.9,386.1,1047.5,386.4,1047.1,386.4z"/>
		<path fill="#3A3A3A" d="M1047.1,390.2h-53.5c-0.4,0-0.7-0.3-0.7-0.7l0,0c0-0.4,0.3-0.7,0.7-0.7h53.5c0.4,0,0.7,0.3,0.7,0.7l0,0
			C1047.9,389.9,1047.5,390.2,1047.1,390.2z"/>
		<path fill="#3A3A3A" d="M1142.6,303.7h-60.6c-0.4,0-0.7-0.3-0.7-0.7v0c0-0.4,0.3-0.7,0.7-0.7h60.6c0.4,0,0.7,0.3,0.7,0.7v0
			C1143.4,303.4,1143,303.7,1142.6,303.7z"/>
		<path fill="#3A3A3A" d="M1142.6,308.2h-60.6c-0.4,0-0.7-0.3-0.7-0.7l0,0c0-0.4,0.3-0.7,0.7-0.7h60.6c0.4,0,0.7,0.3,0.7,0.7l0,0
			C1143.4,307.8,1143,308.2,1142.6,308.2z"/>
		<path fill="#3A3A3A" d="M1142.6,312.6h-60.6c-0.4,0-0.7-0.3-0.7-0.7l0,0c0-0.4,0.3-0.7,0.7-0.7h60.6c0.4,0,0.7,0.3,0.7,0.7l0,0
			C1143.4,312.3,1143,312.6,1142.6,312.6z"/>
		<path fill="#3A3A3A" d="M1142.6,317.1h-60.6c-0.4,0-0.7-0.3-0.7-0.7l0,0c0-0.4,0.3-0.7,0.7-0.7h60.6c0.4,0,0.7,0.3,0.7,0.7l0,0
			C1143.4,316.7,1143,317.1,1142.6,317.1z"/>
		<path fill="#3A3A3A" d="M1142.6,321.5h-60.6c-0.4,0-0.7-0.3-0.7-0.7l0,0c0-0.4,0.3-0.7,0.7-0.7h60.6c0.4,0,0.7,0.3,0.7,0.7l0,0
			C1143.4,321.2,1143,321.5,1142.6,321.5z"/>
		<path fill="#3A3A3A" d="M1142.6,326h-60.6c-0.4,0-0.7-0.3-0.7-0.7v0c0-0.4,0.3-0.7,0.7-0.7h60.6c0.4,0,0.7,0.3,0.7,0.7v0
			C1143.4,325.6,1143,326,1142.6,326z"/>
		<path fill="#3A3A3A" d="M1142.6,330.4h-60.6c-0.4,0-0.7-0.3-0.7-0.7l0,0c0-0.4,0.3-0.7,0.7-0.7h60.6c0.4,0,0.7,0.3,0.7,0.7l0,0
			C1143.4,330.1,1143,330.4,1142.6,330.4z"/>
		<path fill="#3A3A3A" d="M1142.6,334.9h-60.6c-0.4,0-0.7-0.3-0.7-0.7l0,0c0-0.4,0.3-0.7,0.7-0.7h60.6c0.4,0,0.7,0.3,0.7,0.7l0,0
			C1143.4,334.5,1143,334.9,1142.6,334.9z"/>
		<path fill="#3A3A3A" d="M1142.6,339.3h-60.6c-0.4,0-0.7-0.3-0.7-0.7l0,0c0-0.4,0.3-0.7,0.7-0.7h60.6c0.4,0,0.7,0.3,0.7,0.7l0,0
			C1143.4,339,1143,339.3,1142.6,339.3z"/>
		<path fill="#3A3A3A" d="M1137.9,355.5h-51.1c-0.4,0-0.7-0.3-0.7-0.7l0,0c0-0.4,0.3-0.7,0.7-0.7h51.1c0.4,0,0.7,0.3,0.7,0.7l0,0
			C1138.6,355.2,1138.3,355.5,1137.9,355.5z"/>
		<path fill="#3A3A3A" d="M1137.9,359.4h-51.1c-0.4,0-0.7-0.3-0.7-0.7l0,0c0-0.4,0.3-0.7,0.7-0.7h51.1c0.4,0,0.7,0.3,0.7,0.7l0,0
			C1138.6,359.1,1138.3,359.4,1137.9,359.4z"/>
		<path fill="#3A3A3A" d="M1137.9,363.2h-51.1c-0.4,0-0.7-0.3-0.7-0.7l0,0c0-0.4,0.3-0.7,0.7-0.7h51.1c0.4,0,0.7,0.3,0.7,0.7l0,0
			C1138.6,362.9,1138.3,363.2,1137.9,363.2z"/>
		<path fill="#3A3A3A" d="M1137.9,367.1h-51.1c-0.4,0-0.7-0.3-0.7-0.7l0,0c0-0.4,0.3-0.7,0.7-0.7h51.1c0.4,0,0.7,0.3,0.7,0.7l0,0
			C1138.6,366.8,1138.3,367.1,1137.9,367.1z"/>
		<path fill="#3A3A3A" d="M1137.9,371h-51.1c-0.4,0-0.7-0.3-0.7-0.7l0,0c0-0.4,0.3-0.7,0.7-0.7h51.1c0.4,0,0.7,0.3,0.7,0.7l0,0
			C1138.6,370.6,1138.3,371,1137.9,371z"/>
		<path fill="#3A3A3A" d="M1137.9,374.8h-51.1c-0.4,0-0.7-0.3-0.7-0.7l0,0c0-0.4,0.3-0.7,0.7-0.7h51.1c0.4,0,0.7,0.3,0.7,0.7l0,0
			C1138.6,374.5,1138.3,374.8,1137.9,374.8z"/>
		<path fill="#3A3A3A" d="M1137.9,378.7h-51.1c-0.4,0-0.7-0.3-0.7-0.7l0,0c0-0.4,0.3-0.7,0.7-0.7h51.1c0.4,0,0.7,0.3,0.7,0.7l0,0
			C1138.6,378.3,1138.3,378.7,1137.9,378.7z"/>
		<path fill="#3A3A3A" d="M1137.9,382.5h-51.1c-0.4,0-0.7-0.3-0.7-0.7l0,0c0-0.4,0.3-0.7,0.7-0.7h51.1c0.4,0,0.7,0.3,0.7,0.7l0,0
			C1138.6,382.2,1138.3,382.5,1137.9,382.5z"/>
		<path fill="#3A3A3A" d="M1137.9,386.4h-51.1c-0.4,0-0.7-0.3-0.7-0.7l0,0c0-0.4,0.3-0.7,0.7-0.7h51.1c0.4,0,0.7,0.3,0.7,0.7l0,0
			C1138.6,386.1,1138.3,386.4,1137.9,386.4z"/>
		<path fill="#3A3A3A" d="M1137.9,390.2h-51.1c-0.4,0-0.7-0.3-0.7-0.7l0,0c0-0.4,0.3-0.7,0.7-0.7h51.1c0.4,0,0.7,0.3,0.7,0.7l0,0
			C1138.6,389.9,1138.3,390.2,1137.9,390.2z"/>
		<path opacity="0.22" fill="#A8A8A8" d="M1064.2,298v103.6c0,3-2.5,5.5-5.5,5.5h-35.7V292.5h35.7
			C1061.7,292.5,1064.2,294.9,1064.2,298z"/>
	</g>
	<g>
		<g>
			<path fill="#2C2F30" d="M497.9,494.3v1.6c0.1,4.5-2.9,6.4-5.8,6.4H255c-2.6,0-5.4-1.3-5.7-5.2v-3.6l0,0l25.9-47.9
				c1.4-2.8,4.3-4.6,7.4-4.6h181.5c3.4,0,10.9,6.7,12.4,9.7l21.3,43.4L497.9,494.3z"/>
			<path fill="#FCFCFC" d="M497.7,493.9c-0.7,2-3.5,3.2-5.6,3.2H255c-2.2,0-5.6-1.6-5.7-3.8c0-0.4,0.1-0.9,0.3-1.4l25.6-51.6
				c1.1-2.3,3.3-3.9,5.7-4.4c0.6-0.1,1.1-0.2,1.7-0.2h181.5c0.5,0,1,0,1.5,0.1c2.8,0.5,5.2,2.2,6.5,4.8l25.3,50.7
				C497.9,492.4,498,493.2,497.7,493.9z"/>
			<path fill="#2C2F30" d="M470.3,319.1v111.2c0,2.8-2,5.1-4.6,5.6c-0.4,0.1-0.7,0.1-1.1,0.1H281.8c-0.3,0-0.6,0-0.9-0.1
				c-2.8-0.4-4.9-2.8-4.9-5.7V319.1c0-3.2,2.6-5.7,5.7-5.7h182.7C467.7,313.4,470.3,316,470.3,319.1z"/>
			<rect x="283.5" y="320.1" fill="#779096" width="179.2" height="106.3"/>
			<rect x="288.6" y="323.1" fill="#A9BDBF" width="169.2" height="100.4"/>
			<path fill="#415F79" d="M407.9,494.9h-69.9c-0.8,0-1.4-0.7-1.2-1.5l2.9-18.4c0.2-1,1-1.7,2-1.7h63c0.9,0,1.7,0.7,1.8,1.5
				l2.7,18.5C409.4,494.2,408.8,494.9,407.9,494.9z"/>
			<path fill="#415F79" d="M293.2,446.9h-7.6c-1.1,0-1.8-0.3-1.6-0.7l0.5-1.1c0.2-0.4,1.1-0.7,2.2-0.7h7.5c1,0,1.8,0.3,1.6,0.7
				l-0.4,1.1C295.2,446.6,294.2,446.9,293.2,446.9z"/>
			<path fill="#415F79" d="M306,446.9h-7.6c-1.1,0-1.8-0.3-1.7-0.7l0.4-1.1c0.1-0.4,1.1-0.7,2.1-0.7h7.5c1,0,1.8,0.3,1.7,0.7
				l-0.3,1.1C308,446.6,307,446.9,306,446.9z"/>
			<path fill="#415F79" d="M318.8,446.9h-7.6c-1.1,0-1.8-0.3-1.7-0.7l0.3-1.1c0.1-0.4,1-0.7,2.1-0.7h7.5c1,0,1.8,0.3,1.7,0.7
				l-0.3,1.1C320.8,446.6,319.8,446.9,318.8,446.9z"/>
			<path fill="#415F79" d="M331.6,446.9H324c-1.1,0-1.8-0.3-1.8-0.7l0.3-1.1c0.1-0.4,1-0.7,2.1-0.7h7.5c1,0,1.8,0.3,1.8,0.7
				l-0.2,1.1C333.5,446.6,332.6,446.9,331.6,446.9z"/>
			<path fill="#415F79" d="M344.3,446.9h-7.6c-1.1,0-1.9-0.3-1.8-0.7l0.2-1.1c0.1-0.4,1-0.7,2-0.7h7.5c1,0,1.9,0.3,1.8,0.7l-0.1,1.1
				C346.3,446.6,345.4,446.9,344.3,446.9z"/>
			<path fill="#415F79" d="M357.1,446.9h-7.6c-1.1,0-1.9-0.3-1.8-0.7l0.1-1.1c0-0.4,0.9-0.7,2-0.7h7.5c1,0,1.9,0.3,1.9,0.7l-0.1,1.1
				C359.1,446.6,358.2,446.9,357.1,446.9z"/>
			<path fill="#415F79" d="M369.9,446.9h-7.6c-1.1,0-1.9-0.3-1.9-0.7l0.1-1.1c0-0.4,0.9-0.7,1.9-0.7h7.5c1,0,1.9,0.3,1.9,0.7l0,1.1
				C371.8,446.6,371,446.9,369.9,446.9z"/>
			<path fill="#415F79" d="M382.7,446.9h-7.6c-1.1,0-1.9-0.3-1.9-0.7l0-1.1c0-0.4,0.8-0.7,1.9-0.7h7.5c1,0,1.9,0.3,1.9,0.7l0.1,1.1
				C384.6,446.6,383.8,446.9,382.7,446.9z"/>
			<path fill="#415F79" d="M395.5,446.9h-7.6c-1.1,0-1.9-0.3-2-0.7l-0.1-1.1c0-0.4,0.8-0.7,1.8-0.7h7.5c1,0,1.9,0.3,2,0.7l0.1,1.1
				C397.4,446.6,396.5,446.9,395.5,446.9z"/>
			<path fill="#415F79" d="M408.3,446.9h-7.6c-1.1,0-2-0.3-2-0.7l-0.1-1.1c0-0.4,0.8-0.7,1.8-0.7h7.5c1,0,1.9,0.3,2,0.7l0.2,1.1
				C410.1,446.6,409.3,446.9,408.3,446.9z"/>
			<path fill="#415F79" d="M421.1,446.9h-7.6c-1.1,0-2-0.3-2-0.7l-0.2-1.1c-0.1-0.4,0.7-0.7,1.8-0.7h7.5c1,0,2,0.3,2.1,0.7l0.3,1.1
				C422.9,446.6,422.1,446.9,421.1,446.9z"/>
			<path fill="#415F79" d="M433.8,446.9h-7.6c-1.1,0-2-0.3-2.1-0.7l-0.3-1.1c-0.1-0.4,0.7-0.7,1.7-0.7h7.5c1,0,2,0.3,2.1,0.7
				l0.3,1.1C435.7,446.6,434.9,446.9,433.8,446.9z"/>
			<path fill="#415F79" d="M446.6,446.9H439c-1.1,0-2-0.3-2.1-0.7l-0.3-1.1c-0.1-0.4,0.6-0.7,1.7-0.7h7.5c1,0,2,0.3,2.1,0.7l0.4,1.1
				C448.4,446.6,447.7,446.9,446.6,446.9z"/>
			<path fill="#415F79" d="M459.4,446.9h-7.6c-1.1,0-2-0.3-2.2-0.7l-0.4-1.1c-0.1-0.4,0.6-0.7,1.6-0.7h7.5c1,0,2,0.3,2.2,0.7
				l0.5,1.1C461.2,446.6,460.5,446.9,459.4,446.9z"/>
			<path fill="#415F79" d="M292.5,451.1h-9.7c-0.2,0-0.4-0.1-0.4-0.2l1.4-3.5c0-0.1,0.3-0.2,0.5-0.2h9.5c0.2,0,0.4,0.1,0.4,0.2
				L293,451C293,451.1,292.7,451.1,292.5,451.1z"/>
			<path fill="#415F79" d="M310.4,455.8h-9.9c-0.2,0-0.4-0.1-0.4-0.2l1.2-3.7c0-0.1,0.2-0.2,0.5-0.2h9.7c0.2,0,0.4,0.1,0.4,0.2
				l-1,3.7C310.8,455.7,310.6,455.8,310.4,455.8z"/>
			<path fill="#415F79" d="M312,460.6h-10.1c-0.3,0-0.4-0.1-0.4-0.2l1.2-3.8c0-0.1,0.3-0.2,0.5-0.2h9.9c0.2,0,0.4,0.1,0.4,0.2
				l-1,3.8C312.4,460.6,312.2,460.6,312,460.6z"/>
			<path fill="#415F79" d="M317.6,465.7h-10.3c-0.3,0-0.4-0.1-0.4-0.2l1.1-4c0-0.1,0.3-0.2,0.5-0.2h10.1c0.3,0,0.4,0.1,0.4,0.2
				l-0.9,4C318.1,465.6,317.9,465.7,317.6,465.7z"/>
			<path fill="#415F79" d="M285.1,471.6h-10.5c-0.3,0-0.5-0.1-0.4-0.2l1.9-4.8c0-0.1,0.3-0.2,0.6-0.2H287c0.3,0,0.5,0.1,0.4,0.2
				l-1.7,4.8C285.7,471.5,285.4,471.6,285.1,471.6z"/>
			<path fill="#415F79" d="M299.2,471.6h-10.5c-0.3,0-0.5-0.1-0.4-0.2l1.7-4.8c0-0.1,0.3-0.2,0.6-0.2h10.3c0.3,0,0.5,0.1,0.4,0.2
				l-1.4,4.8C299.7,471.5,299.4,471.6,299.2,471.6z"/>
			<path fill="#415F79" d="M312.8,471.6h-10.5c-0.3,0-0.5-0.1-0.4-0.2l1.4-4.8c0-0.1,0.3-0.2,0.6-0.2H314c0.3,0,0.5,0.1,0.4,0.2
				l-1.2,4.8C313.3,471.5,313,471.6,312.8,471.6z"/>
			<path fill="#415F79" d="M329.9,471.6H316c-0.3,0-0.6-0.1-0.5-0.2l1.1-4.7c0-0.1,0.3-0.2,0.6-0.2h13.6c0.3,0,0.5,0.1,0.5,0.2
				l-0.8,4.7C330.5,471.5,330.2,471.6,329.9,471.6z"/>
			<path fill="#415F79" d="M415.2,471.6h-13.9c-0.3,0-0.6-0.1-0.6-0.2l-0.6-4.7c0-0.1,0.2-0.2,0.5-0.2h13.6c0.3,0,0.6,0.1,0.6,0.2
				l0.8,4.7C415.8,471.5,415.5,471.6,415.2,471.6z"/>
			<path fill="#415F79" d="M429.2,471.6h-10.4c-0.3,0-0.5-0.1-0.5-0.2l-0.9-4.8c0-0.1,0.2-0.2,0.5-0.2H428c0.3,0,0.5,0.1,0.5,0.2
				l1.1,4.8C429.7,471.5,429.5,471.6,429.2,471.6z"/>
			<path fill="#415F79" d="M397.9,471.6h-64c-0.7,0-1.2-0.2-1.1-0.5l0.7-4.2c0-0.3,0.6-0.5,1.3-0.5h62.6c0.7,0,1.2,0.2,1.2,0.5
				l0.5,4.2C399.1,471.3,398.6,471.6,397.9,471.6z"/>
			<path fill="#415F79" d="M331,465.7h-10.3c-0.3,0-0.4-0.1-0.4-0.2l0.9-4c0-0.1,0.2-0.2,0.5-0.2h10.1c0.3,0,0.4,0.1,0.4,0.2l-0.7,4
				C331.5,465.6,331.3,465.7,331,465.7z"/>
			<path fill="#415F79" d="M344.4,465.7h-10.3c-0.3,0-0.5-0.1-0.4-0.2l0.7-4c0-0.1,0.2-0.2,0.5-0.2h10.1c0.3,0,0.4,0.1,0.4,0.2
				l-0.5,4C344.9,465.6,344.7,465.7,344.4,465.7z"/>
			<path fill="#415F79" d="M357.8,465.7h-10.3c-0.3,0-0.5-0.1-0.4-0.2l0.4-4c0-0.1,0.2-0.2,0.5-0.2h10.1c0.3,0,0.5,0.1,0.4,0.2
				l-0.2,4C358.3,465.6,358.1,465.7,357.8,465.7z"/>
			<path fill="#415F79" d="M371.2,465.7h-10.3c-0.3,0-0.5-0.1-0.5-0.2l0.2-4c0-0.1,0.2-0.2,0.5-0.2h10.1c0.3,0,0.5,0.1,0.5,0.2l0,4
				C371.7,465.6,371.5,465.7,371.2,465.7z"/>
			<path fill="#415F79" d="M384.6,465.7h-10.3c-0.3,0-0.5-0.1-0.5-0.2l0-4c0-0.1,0.2-0.2,0.5-0.2h10.1c0.3,0,0.5,0.1,0.5,0.2l0.2,4
				C385.1,465.6,384.8,465.7,384.6,465.7z"/>
			<path fill="#415F79" d="M398,465.7h-10.3c-0.3,0-0.5-0.1-0.5-0.2l-0.3-4c0-0.1,0.2-0.2,0.4-0.2h10.1c0.3,0,0.5,0.1,0.5,0.2l0.4,4
				C398.4,465.6,398.2,465.7,398,465.7z"/>
			<path fill="#415F79" d="M411.4,465.7h-10.3c-0.3,0-0.5-0.1-0.5-0.2l-0.5-4c0-0.1,0.2-0.2,0.4-0.2h10.1c0.3,0,0.5,0.1,0.5,0.2
				l0.7,4C411.8,465.6,411.6,465.7,411.4,465.7z"/>
			<path fill="#415F79" d="M424.8,465.7h-10.3c-0.3,0-0.5-0.1-0.5-0.2l-0.7-4c0-0.1,0.2-0.2,0.4-0.2h10.1c0.3,0,0.5,0.1,0.5,0.2
				l0.9,4C425.2,465.6,425,465.7,424.8,465.7z"/>
			<path fill="#415F79" d="M441.7,471.6h-8c-1,0-1.9-0.3-2-0.8l-0.3-1.2c-0.1-0.4,0.6-0.7,1.6-0.7h7.9c1,0,1.9,0.3,2,0.7l0.4,1.2
				C443.4,471.3,442.7,471.6,441.7,471.6z"/>
			<path fill="#415F79" d="M455.4,471.6h-8c-1,0-2-0.3-2.1-0.8l-0.4-1.2c-0.1-0.4,0.6-0.7,1.6-0.7h7.9c1,0,1.9,0.3,2.1,0.7l0.4,1.2
				C457.2,471.3,456.4,471.6,455.4,471.6z"/>
			<path fill="#415F79" d="M454.4,468.6h-7.9c-1,0-1.9-0.3-2-0.7l-0.4-1.2c-0.1-0.4,0.6-0.7,1.6-0.7h7.8c1,0,1.9,0.3,2.1,0.7
				l0.4,1.2C456.1,468.3,455.4,468.6,454.4,468.6z"/>
			<path fill="#415F79" d="M469.2,471.6h-8c-1,0-2-0.3-2.1-0.8l-0.4-1.2c-0.1-0.4,0.6-0.7,1.6-0.7h7.9c1,0,2,0.3,2.1,0.7l0.5,1.2
				C470.9,471.3,470.2,471.6,469.2,471.6z"/>
			<path fill="#415F79" d="M325.2,460.6h-10.1c-0.3,0-0.4-0.1-0.4-0.2l1-3.8c0-0.1,0.2-0.2,0.5-0.2h9.9c0.2,0,0.4,0.1,0.4,0.2
				l-0.8,3.8C325.7,460.6,325.4,460.6,325.2,460.6z"/>
			<path fill="#415F79" d="M338.4,460.6h-10.1c-0.3,0-0.4-0.1-0.4-0.2l0.7-3.8c0-0.1,0.2-0.2,0.5-0.2h9.9c0.2,0,0.4,0.1,0.4,0.2
				l-0.6,3.8C338.9,460.6,338.7,460.6,338.4,460.6z"/>
			<path fill="#415F79" d="M351.6,460.6h-10.1c-0.3,0-0.4-0.1-0.4-0.2l0.5-3.8c0-0.1,0.2-0.2,0.5-0.2h9.9c0.2,0,0.4,0.1,0.4,0.2
				l-0.3,3.8C352.1,460.6,351.9,460.6,351.6,460.6z"/>
			<path fill="#415F79" d="M364.8,460.6h-10.1c-0.3,0-0.4-0.1-0.4-0.2l0.3-3.8c0-0.1,0.2-0.2,0.5-0.2h9.9c0.2,0,0.4,0.1,0.4,0.2
				l-0.1,3.8C365.2,460.6,365,460.6,364.8,460.6z"/>
			<path fill="#415F79" d="M378,460.6h-10.1c-0.3,0-0.5-0.1-0.5-0.2l0.1-3.8c0-0.1,0.2-0.2,0.5-0.2h9.9c0.2,0,0.4,0.1,0.5,0.2
				l0.1,3.8C378.5,460.6,378.3,460.6,378,460.6z"/>
			<path fill="#415F79" d="M390.7,460.6h-10.1c-0.3,0-0.5-0.1-0.5-0.2l-0.1-3.8c0-0.1,0.2-0.2,0.4-0.2h9.9c0.2,0,0.5,0.1,0.5,0.2
				l0.3,3.8C391.1,460.6,390.9,460.6,390.7,460.6z"/>
			<path fill="#415F79" d="M403.8,460.6h-10.1c-0.3,0-0.5-0.1-0.5-0.2l-0.4-3.8c0-0.1,0.2-0.2,0.4-0.2h9.9c0.2,0,0.5,0.1,0.5,0.2
				l0.5,3.8C404.2,460.6,404,460.6,403.8,460.6z"/>
			<path fill="#415F79" d="M416.9,460.6h-10.1c-0.3,0-0.5-0.1-0.5-0.2l-0.6-3.8c0-0.1,0.2-0.2,0.4-0.2h9.9c0.2,0,0.5,0.1,0.5,0.2
				l0.8,3.8C417.3,460.6,417.1,460.6,416.9,460.6z"/>
			<path fill="#415F79" d="M429.9,460.6h-10.1c-0.3,0-0.5-0.1-0.5-0.2l-0.8-3.8c0-0.1,0.2-0.2,0.4-0.2h9.9c0.2,0,0.5,0.1,0.5,0.2
				l1,3.8C430.3,460.6,430.1,460.6,429.9,460.6z"/>
			<path fill="#415F79" d="M442.9,460.6h-10.1c-0.3,0-0.5-0.1-0.5-0.2l-1-3.8c0-0.1,0.2-0.2,0.4-0.2h9.9c0.2,0,0.5,0.1,0.5,0.2
				l1.2,3.8C443.3,460.6,443.2,460.6,442.9,460.6z"/>
			<path fill="#415F79" d="M438,465.7h-10.3c-0.3,0-0.5-0.1-0.5-0.2l-0.9-4c0-0.1,0.2-0.2,0.4-0.2h10.1c0.3,0,0.5,0.1,0.5,0.2l1.1,4
				C438.5,465.6,438.3,465.7,438,465.7z"/>
			<path fill="#415F79" d="M466,460.6h-19.5c-0.3,0-0.7-0.1-0.7-0.2l-1.2-3.7c0-0.1,0.2-0.2,0.5-0.2h19.1c0.3,0,0.7,0.1,0.7,0.2
				l1.5,3.7C466.6,460.5,466.3,460.6,466,460.6z"/>
			<path fill="#415F79" d="M467.9,465.7h-26.7c-0.4,0-0.8-0.1-0.8-0.3l-1.1-3.8c0-0.2,0.2-0.3,0.6-0.3h26.2c0.4,0,0.8,0.1,0.8,0.3
				l1.6,3.8C468.6,465.6,468.3,465.7,467.9,465.7z"/>
			<path fill="#415F79" d="M298.9,460.6h-19.7c-0.3,0-0.6-0.1-0.5-0.2l1.5-3.7c0.1-0.1,0.4-0.2,0.7-0.2h19.3c0.3,0,0.6,0.1,0.5,0.2
				l-1.2,3.7C299.5,460.5,299.2,460.6,298.9,460.6z"/>
			<path fill="#415F79" d="M304.1,465.7H277c-0.4,0-0.7-0.1-0.6-0.3l1.5-3.8c0.1-0.2,0.4-0.3,0.8-0.3h26.6c0.4,0,0.7,0.1,0.6,0.3
				l-1.1,3.8C304.9,465.6,304.5,465.7,304.1,465.7z"/>
			<path fill="#415F79" d="M323.2,455.8h-9.9c-0.2,0-0.4-0.1-0.4-0.2l1-3.7c0-0.1,0.2-0.2,0.5-0.2h9.7c0.2,0,0.4,0.1,0.4,0.2
				l-0.8,3.7C323.7,455.7,323.5,455.8,323.2,455.8z"/>
			<path fill="#415F79" d="M336,455.8h-9.9c-0.2,0-0.4-0.1-0.4-0.2l0.8-3.7c0-0.1,0.2-0.2,0.5-0.2h9.7c0.2,0,0.4,0.1,0.4,0.2
				l-0.6,3.7C336.5,455.7,336.3,455.8,336,455.8z"/>
			<path fill="#415F79" d="M348.9,455.8H339c-0.2,0-0.4-0.1-0.4-0.2l0.5-3.7c0-0.1,0.2-0.2,0.5-0.2h9.7c0.2,0,0.4,0.1,0.4,0.2
				l-0.4,3.7C349.4,455.7,349.2,455.8,348.9,455.8z"/>
			<path fill="#415F79" d="M361.8,455.8h-9.9c-0.2,0-0.4-0.1-0.4-0.2l0.3-3.7c0-0.1,0.2-0.2,0.5-0.2h9.7c0.2,0,0.4,0.1,0.4,0.2
				l-0.2,3.7C362.2,455.7,362,455.8,361.8,455.8z"/>
			<path fill="#415F79" d="M374.6,455.8h-9.9c-0.2,0-0.4-0.1-0.4-0.2l0.1-3.7c0-0.1,0.2-0.2,0.4-0.2h9.7c0.2,0,0.4,0.1,0.4,0.2
				l0,3.7C375,455.7,374.8,455.8,374.6,455.8z"/>
			<path fill="#415F79" d="M387.1,455.8h-9.9c-0.2,0-0.4-0.1-0.4-0.2l-0.1-3.7c0-0.1,0.2-0.2,0.4-0.2h9.7c0.2,0,0.4,0.1,0.4,0.2
				l0.3,3.7C387.5,455.7,387.4,455.8,387.1,455.8z"/>
			<path fill="#415F79" d="M400.1,455.8h-9.9c-0.2,0-0.5-0.1-0.5-0.2l-0.3-3.7c0-0.1,0.2-0.2,0.4-0.2h9.7c0.2,0,0.4,0.1,0.5,0.2
				l0.5,3.7C400.5,455.7,400.3,455.8,400.1,455.8z"/>
			<path fill="#415F79" d="M412.9,455.8H403c-0.2,0-0.5-0.1-0.5-0.2l-0.5-3.7c0-0.1,0.2-0.2,0.4-0.2h9.7c0.2,0,0.5,0.1,0.5,0.2
				l0.7,3.7C413.4,455.7,413.2,455.8,412.9,455.8z"/>
			<path fill="#415F79" d="M425.5,455.8h-9.9c-0.2,0-0.5-0.1-0.5-0.2l-0.7-3.7c0-0.1,0.2-0.2,0.4-0.2h9.7c0.2,0,0.5,0.1,0.5,0.2
				l0.9,3.7C426,455.7,425.8,455.8,425.5,455.8z"/>
			<path fill="#415F79" d="M438.7,455.8h-9.9c-0.2,0-0.5-0.1-0.5-0.2l-0.9-3.7c0-0.1,0.2-0.2,0.4-0.2h9.7c0.2,0,0.5,0.1,0.5,0.2
				l1.1,3.7C439.1,455.7,438.9,455.8,438.7,455.8z"/>
			<path fill="#415F79" d="M451.2,455.8h-9.9c-0.2,0-0.5-0.1-0.5-0.2l-1.1-3.7c0-0.1,0.1-0.2,0.4-0.2h9.7c0.2,0,0.5,0.1,0.5,0.2
				l1.3,3.7C451.7,455.7,451.5,455.8,451.2,455.8z"/>
			<path fill="#415F79" d="M464.2,455.8h-9.9c-0.2,0-0.5-0.1-0.5-0.2l-1.3-3.7c0-0.1,0.1-0.2,0.4-0.2h9.7c0.2,0,0.5,0.1,0.5,0.2
				l1.5,3.7C464.6,455.7,464.4,455.8,464.2,455.8z"/>
			<path fill="#415F79" d="M305.3,451.1h-9.7c-0.2,0-0.4-0.1-0.4-0.2l1.2-3.5c0-0.1,0.2-0.2,0.5-0.2h9.5c0.2,0,0.4,0.1,0.4,0.2
				l-1.1,3.5C305.7,451.1,305.5,451.1,305.3,451.1z"/>
			<path fill="#415F79" d="M317.7,451.1H308c-0.2,0-0.4-0.1-0.4-0.2l1-3.5c0-0.1,0.2-0.2,0.5-0.2h9.5c0.2,0,0.4,0.1,0.4,0.2
				l-0.9,3.5C318.2,451.1,317.9,451.1,317.7,451.1z"/>
			<path fill="#415F79" d="M330.4,451.1h-9.7c-0.2,0-0.4-0.1-0.4-0.2l0.8-3.5c0-0.1,0.2-0.2,0.5-0.2h9.5c0.2,0,0.4,0.1,0.4,0.2
				l-0.7,3.5C330.9,451.1,330.7,451.1,330.4,451.1z"/>
			<path fill="#415F79" d="M342.8,451.1h-9.7c-0.2,0-0.4-0.1-0.4-0.2l0.6-3.5c0-0.1,0.2-0.2,0.5-0.2h9.5c0.2,0,0.4,0.1,0.4,0.2
				l-0.5,3.5C343.3,451.1,343.1,451.1,342.8,451.1z"/>
			<path fill="#415F79" d="M355.6,451.1h-9.7c-0.2,0-0.4-0.1-0.4-0.2l0.4-3.5c0-0.1,0.2-0.2,0.4-0.2h9.5c0.2,0,0.4,0.1,0.4,0.2
				l-0.3,3.5C356.1,451.1,355.9,451.1,355.6,451.1z"/>
			<path fill="#415F79" d="M367.9,451.1h-9.7c-0.2,0-0.4-0.1-0.4-0.2l0.2-3.5c0-0.1,0.2-0.2,0.4-0.2h9.5c0.2,0,0.4,0.1,0.4,0.2
				l-0.1,3.5C368.3,451.1,368.1,451.1,367.9,451.1z"/>
			<path fill="#415F79" d="M380.7,451.1H371c-0.2,0-0.4-0.1-0.4-0.2l0-3.5c0-0.1,0.2-0.2,0.4-0.2h9.5c0.2,0,0.4,0.1,0.4,0.2l0.1,3.5
				C381.1,451.1,380.9,451.1,380.7,451.1z"/>
			<path fill="#415F79" d="M393.1,451.1h-9.7c-0.2,0-0.4-0.1-0.4-0.2l-0.2-3.5c0-0.1,0.2-0.2,0.4-0.2h9.5c0.2,0,0.4,0.1,0.4,0.2
				l0.3,3.5C393.5,451.1,393.3,451.1,393.1,451.1z"/>
			<path fill="#415F79" d="M405.8,451.1h-9.7c-0.2,0-0.4-0.1-0.5-0.2l-0.4-3.5c0-0.1,0.2-0.2,0.4-0.2h9.5c0.2,0,0.4,0.1,0.5,0.2
				l0.5,3.5C406.3,451.1,406.1,451.1,405.8,451.1z"/>
			<path fill="#415F79" d="M418.5,451.1h-9.7c-0.2,0-0.4-0.1-0.5-0.2l-0.6-3.5c0-0.1,0.2-0.2,0.4-0.2h9.5c0.2,0,0.4,0.1,0.5,0.2
				l0.7,3.5C419,451.1,418.8,451.1,418.5,451.1z"/>
			<path fill="#415F79" d="M431.1,451.1h-9.7c-0.2,0-0.5-0.1-0.5-0.2l-0.8-3.5c0-0.1,0.2-0.2,0.4-0.2h9.5c0.2,0,0.4,0.1,0.5,0.2
				l0.9,3.5C431.6,451.1,431.4,451.1,431.1,451.1z"/>
			<path fill="#415F79" d="M443.2,451.1h-9.7c-0.2,0-0.5-0.1-0.5-0.2l-1-3.5c0-0.1,0.1-0.2,0.4-0.2h9.5c0.2,0,0.5,0.1,0.5,0.2
				l1.1,3.5C443.6,451.1,443.5,451.1,443.2,451.1z"/>
			<path fill="#415F79" d="M461.4,451.1h-14.5c-0.7,0-1.3-0.2-1.4-0.5l-1-3c-0.1-0.2,0.4-0.4,1-0.4h14.2c0.7,0,1.3,0.2,1.4,0.4
				l1.2,3C462.5,450.9,462,451.1,461.4,451.1z"/>
			<path fill="#415F79" d="M296.5,455.8h-14.8c-0.7,0-1.2-0.2-1-0.5l1.3-3.1c0.1-0.3,0.7-0.5,1.4-0.5h14.5c0.7,0,1.1,0.2,1.1,0.5
				l-1,3.1C297.8,455.6,297.2,455.8,296.5,455.8z"/>
			<polygon opacity="0.36" fill="#FFFFFF" points="438.8,320.1 365.2,426.4 351.6,426.4 425.2,320.1 			"/>
			<polygon opacity="0.36" fill="#FFFFFF" points="407.6,320.1 335.9,426.4 303.4,426.4 375.1,320.1 			"/>
		</g>
		<path opacity="0.36" fill="#A8A8A8" d="M373.2,313.4v188.8H255c-2.6,0-5.4-1.3-5.7-5.2v-3.6l0,0c0-0.4,0.1-0.9,0.3-1.4l25.6-51.6
			c1.1-2.3,3.3-3.9,5.7-4.4c-2.8-0.4-4.9-2.8-4.9-5.7V319.1c0-3.2,2.6-5.7,5.7-5.7H373.2z"/>
	</g>
	<g>
		<g>
			<path fill="#2C2F30" d="M810.1,210.9l66.8-0.2l0.1,21.2l-66.8,0.2L810.1,210.9z M882,235.8l-0.1-25.1c0-2.7-1.7-4.8-3.9-5.4
				c-0.2-0.1-0.4-0.1-0.6-0.1c-0.1,0-0.2,0-0.2,0c-0.1,0-0.2,0-0.3,0l-33.5,0.1l-33.8,0.1c-0.1,0-0.2,0-0.3,0c-0.1,0-0.2,0-0.2,0
				c-0.2,0-0.4,0.1-0.6,0.1c-2.2,0.6-3.9,2.8-3.9,5.4l0.1,25.1l0.2,67.3c0,3.1,2.3,5.5,5.1,5.5l33.5-0.1l33.8-0.1
				c2.8,0,5.1-2.5,5.1-5.6L882,235.8z"/>
			
				<rect x="810.1" y="210.8" transform="matrix(1 -2.634037e-03 2.634037e-03 1 -0.5804 2.2225)" fill="#779096" width="66.8" height="21.2"/>
			<path fill="#FFF6E5" d="M860,241.5l0,7.4c0,1.1-0.9,2-2,2l-10.4,0c-0.4,0-0.8-0.1-1.2-0.4c-0.1-0.1-0.2-0.1-0.3-0.2
				c-0.3-0.4-0.6-0.8-0.6-1.4l0-7.4c0-1.1,0.9-2,2-2l10.4,0c0.3,0,0.7,0.1,1,0.2c0.3,0.1,0.5,0.3,0.6,0.6
				C859.9,240.7,860,241.1,860,241.5z"/>
			<path fill="#FFF6E5" d="M878.2,241.4l0,7.4c0,1.1-0.9,2-2,2l-10.4,0c-0.4,0-0.8-0.1-1.2-0.4c-0.1-0.1-0.2-0.1-0.3-0.2
				c-0.3-0.4-0.6-0.8-0.6-1.4l0-7.4c0-1.1,0.9-2,2-2l10.4,0c0.3,0,0.7,0.1,1,0.2c0.3,0.1,0.5,0.3,0.6,0.6
				C878.1,240.6,878.2,241,878.2,241.4z"/>
			<path fill="#FFF6E5" d="M841.8,241.5l0,7.4c0,1.1-0.9,2-2,2l-10.4,0c-0.4,0-0.8-0.1-1.2-0.4c-0.1-0.1-0.2-0.1-0.3-0.2
				c-0.3-0.4-0.6-0.8-0.6-1.4l0-7.4c0-1.1,0.9-2,2-2l10.4,0c0.3,0,0.7,0.1,1,0.2c0.3,0.1,0.5,0.3,0.6,0.6
				C841.6,240.7,841.8,241.1,841.8,241.5z"/>
			<path fill="#FFF6E5" d="M823.5,241.6l0,7.4c0,1.1-0.9,2-2,2l-10.4,0c-0.4,0-0.8-0.1-1.2-0.4c-0.1-0.1-0.2-0.1-0.3-0.2
				c-0.3-0.4-0.6-0.8-0.6-1.4l0-7.4c0-1.1,0.9-2,2-2l10.4,0c0.3,0,0.7,0.1,1,0.2c0.3,0.1,0.5,0.3,0.6,0.6
				C823.4,240.8,823.5,241.2,823.5,241.6z"/>
			<path fill="#FFF6E5" d="M860.1,259.3l0,7.4c0,1.1-0.9,2-2,2l-10.4,0c-0.4,0-0.8-0.1-1.2-0.4c-0.1-0.1-0.2-0.1-0.3-0.2
				c-0.3-0.4-0.6-0.8-0.6-1.4l0-7.4c0-1.1,0.9-2,2-2l10.4,0c0.3,0,0.7,0.1,1,0.2c0.3,0.1,0.5,0.3,0.6,0.6
				C859.9,258.5,860,258.9,860.1,259.3z"/>
			<path fill="#FFF6E5" d="M878.3,259.3l0,7.4c0,1.1-0.9,2-2,2l-10.4,0c-0.4,0-0.8-0.1-1.2-0.4c-0.1-0.1-0.2-0.1-0.3-0.2
				c-0.3-0.4-0.6-0.8-0.6-1.4l0-7.4c0-1.1,0.9-2,2-2l10.4,0c0.3,0,0.7,0.1,1,0.2c0.3,0.1,0.5,0.3,0.6,0.6
				C878.1,258.4,878.3,258.8,878.3,259.3z"/>
			<path fill="#FFF6E5" d="M841.8,259.4l0,7.4c0,1.1-0.9,2-2,2l-10.4,0c-0.4,0-0.8-0.1-1.2-0.4c-0.1-0.1-0.2-0.1-0.3-0.2
				c-0.3-0.4-0.6-0.8-0.6-1.4l0-7.4c0-1.1,0.9-2,2-2l10.4,0c0.3,0,0.7,0.1,1,0.2c0.3,0.1,0.5,0.3,0.6,0.6
				C841.7,258.5,841.8,258.9,841.8,259.4z"/>
			<path fill="#FFF6E5" d="M823.6,259.4l0,7.4c0,1.1-0.9,2-2,2l-10.4,0c-0.4,0-0.8-0.1-1.2-0.4c-0.1-0.1-0.2-0.1-0.3-0.2
				c-0.3-0.4-0.6-0.8-0.6-1.4l0-7.4c0-1.1,0.9-2,2-2l10.4,0c0.3,0,0.7,0.1,1,0.2c0.3,0.1,0.5,0.3,0.6,0.6
				C823.4,258.6,823.6,259,823.6,259.4z"/>
			<path fill="#FFF6E5" d="M860.1,277.1l0,7.4c0,1.1-0.9,2-2,2l-10.4,0c-0.4,0-0.8-0.1-1.2-0.4c-0.1-0.1-0.2-0.1-0.3-0.2
				c-0.3-0.4-0.6-0.8-0.6-1.4l0-7.4c0-1.1,0.9-2,2-2l10.4,0c0.3,0,0.7,0.1,1,0.2c0.3,0.1,0.5,0.3,0.6,0.6
				C860,276.3,860.1,276.7,860.1,277.1z"/>
			<path fill="#FFF6E5" d="M841.9,277.2l0,7.4c0,1.1-0.9,2-2,2l-10.4,0c-0.4,0-0.8-0.1-1.2-0.4c-0.1-0.1-0.2-0.1-0.3-0.2
				c-0.3-0.4-0.6-0.8-0.6-1.4l0-7.4c0-1.1,0.9-2,2-2l10.4,0c0.3,0,0.7,0.1,1,0.2c0.3,0.1,0.5,0.3,0.6,0.6
				C841.7,276.3,841.9,276.7,841.9,277.2z"/>
			<path fill="#FFF6E5" d="M823.6,277.2l0,7.4c0,1.1-0.9,2-2,2l-10.4,0c-0.4,0-0.8-0.1-1.2-0.4c-0.1-0.1-0.2-0.1-0.3-0.2
				c-0.3-0.4-0.6-0.8-0.6-1.4l0-7.4c0-1.1,0.9-2,2-2l10.4,0c0.3,0,0.7,0.1,1,0.2c0.3,0.1,0.5,0.3,0.6,0.6
				C823.5,276.4,823.6,276.8,823.6,277.2z"/>
			<path fill="#FFF6E5" d="M860.1,294.9l0,7.4c0,1.1-0.9,2-2,2l-10.4,0c-0.4,0-0.8-0.1-1.2-0.4c-0.1-0.1-0.2-0.1-0.3-0.2
				c-0.3-0.4-0.6-0.8-0.6-1.4l0-7.4c0-1.1,0.9-2,2-2l10.4,0c0.3,0,0.7,0.1,1,0.2c0.3,0.1,0.5,0.3,0.6,0.6
				C860,294.1,860.1,294.5,860.1,294.9z"/>
			<path fill="#FFF6E5" d="M841.9,295l0,7.4c0,1.1-0.9,2-2,2l-10.4,0c-0.4,0-0.8-0.1-1.2-0.4c-0.1-0.1-0.2-0.1-0.3-0.2
				c-0.3-0.4-0.6-0.8-0.6-1.4l0-7.4c0-1.1,0.9-2,2-2l10.4,0c0.3,0,0.7,0.1,1,0.2c0.3,0.1,0.5,0.3,0.6,0.6
				C841.8,294.1,841.9,294.5,841.9,295z"/>
			<path fill="#FFF6E5" d="M823.7,295l0,7.4c0,1.1-0.9,2-2,2l-10.4,0c-0.4,0-0.8-0.1-1.2-0.4c-0.1-0.1-0.2-0.1-0.3-0.2
				c-0.3-0.4-0.6-0.8-0.6-1.4l0-7.4c0-1.1,0.9-2,2-2l10.4,0c0.3,0,0.7,0.1,1,0.2c0.3,0.1,0.5,0.3,0.6,0.6
				C823.5,294.2,823.7,294.6,823.7,295z"/>
			<path fill="#FFF6E5" d="M876.7,276.7l0.1,25.7c0,0.9-0.7,1.7-1.7,1.7l-8.4,0c-0.3,0-0.6-0.1-0.9-0.2c-0.2-0.1-0.4-0.3-0.5-0.4
				c-0.2-0.3-0.3-0.6-0.3-1l-0.1-25.7c0-0.9,0.7-1.7,1.7-1.7l8.4,0c0.4,0,0.7,0.1,1,0.3c0.2,0.1,0.4,0.3,0.5,0.5
				C876.6,276.1,876.7,276.3,876.7,276.7z"/>
			<path fill="#152326" d="M868.1,244.4l2.1,0l0-2.4l1.4,0l0,2.4l2.1,0l0,1.6l-2.1,0l0,2.4l-1.4,0l0-2.4l-2.1,0L868.1,244.4z"/>
			<path fill="#152326" d="M873.9,262.1l0,1.7l-5.7,0l0-1.7L873.9,262.1z"/>
			<path fill="#152326" d="M868.2,287.8l5.9,0l0,1.4l-5.9,0L868.2,287.8z M868.2,290l5.9,0l0,1.4l-5.9,0L868.2,290z"/>
			<polygon opacity="0.36" fill="#FFFFFF" points="869,210.8 856.3,232 848,232.1 861.1,210.8 			"/>
			<polygon opacity="0.36" fill="#FFFFFF" points="846.1,210.8 832.9,232.1 816.4,232.1 830.6,210.9 			"/>
		</g>
		<path opacity="0.64" fill="#A8A8A8" d="M843.3,205.3v103.5l-33.5,0.1c-2.8,0-5.1-2.4-5.1-5.5l-0.2-67.3l-0.1-25.1
			c0-2.7,1.7-4.9,3.9-5.4c0.2-0.1,0.4-0.1,0.6-0.1c0.1,0,0.1,0,0.2,0c0.1,0,0.2,0,0.3,0L843.3,205.3z"/>
	</g>
	<g>
		<rect x="492.7" y="94.9" fill="#FCFCFC" width="106.9" height="140"/>
		<path fill="#515151" d="M522.5,108.4h69.4c0.4,0,0.8-0.3,0.8-0.8l0,0c0-0.4-0.3-0.8-0.8-0.8h-69.4c-0.4,0-0.8,0.3-0.8,0.8l0,0
			C521.7,108,522,108.4,522.5,108.4z"/>
		<path fill="#515151" d="M522.5,112.6h69.4c0.4,0,0.8-0.3,0.8-0.8l0,0c0-0.4-0.3-0.8-0.8-0.8h-69.4c-0.4,0-0.8,0.3-0.8,0.8l0,0
			C521.7,112.3,522,112.6,522.5,112.6z"/>
		<path fill="#515151" d="M522.5,116.8h69.4c0.4,0,0.8-0.3,0.8-0.8l0,0c0-0.4-0.3-0.8-0.8-0.8h-69.4c-0.4,0-0.8,0.3-0.8,0.8l0,0
			C521.7,116.5,522,116.8,522.5,116.8z"/>
		<path fill="#515151" d="M522.5,121h69.4c0.4,0,0.8-0.3,0.8-0.8l0,0c0-0.4-0.3-0.8-0.8-0.8h-69.4c-0.4,0-0.8,0.3-0.8,0.8l0,0
			C521.7,120.7,522,121,522.5,121z"/>
		<path fill="#515151" d="M522.5,125.3h69.4c0.4,0,0.8-0.3,0.8-0.8l0,0c0-0.4-0.3-0.8-0.8-0.8h-69.4c-0.4,0-0.8,0.3-0.8,0.8l0,0
			C521.7,124.9,522,125.3,522.5,125.3z"/>
		<path fill="#515151" d="M541.7,161.1h50.2c0.4,0,0.8-0.3,0.8-0.8l0,0c0-0.4-0.3-0.8-0.8-0.8h-50.2c-0.4,0-0.8,0.3-0.8,0.8l0,0
			C540.9,160.7,541.3,161.1,541.7,161.1z"/>
		<path fill="#515151" d="M541.7,165.7h50.2c0.4,0,0.8-0.3,0.8-0.8l0,0c0-0.4-0.3-0.8-0.8-0.8h-50.2c-0.4,0-0.8,0.3-0.8,0.8l0,0
			C540.9,165.4,541.3,165.7,541.7,165.7z"/>
		<path fill="#515151" d="M541.7,170.4h50.2c0.4,0,0.8-0.3,0.8-0.8l0,0c0-0.4-0.3-0.8-0.8-0.8h-50.2c-0.4,0-0.8,0.3-0.8,0.8l0,0
			C540.9,170,541.3,170.4,541.7,170.4z"/>
		<path fill="#515151" d="M541.7,175h50.2c0.4,0,0.8-0.3,0.8-0.8l0,0c0-0.4-0.3-0.8-0.8-0.8h-50.2c-0.4,0-0.8,0.3-0.8,0.8l0,0
			C540.9,174.7,541.3,175,541.7,175z"/>
		<path fill="#515151" d="M541.7,179.7h50.2c0.4,0,0.8-0.3,0.8-0.8l0,0c0-0.4-0.3-0.8-0.8-0.8h-50.2c-0.4,0-0.8,0.3-0.8,0.8l0,0
			C540.9,179.3,541.3,179.7,541.7,179.7z"/>
		<path fill="#515151" d="M541.7,184.3h50.2c0.4,0,0.8-0.3,0.8-0.8l0,0c0-0.4-0.3-0.8-0.8-0.8h-50.2c-0.4,0-0.8,0.3-0.8,0.8l0,0
			C540.9,184,541.3,184.3,541.7,184.3z"/>
		<path fill="#515151" d="M541.7,189h50.2c0.4,0,0.8-0.3,0.8-0.8l0,0c0-0.4-0.3-0.8-0.8-0.8h-50.2c-0.4,0-0.8,0.3-0.8,0.8l0,0
			C540.9,188.6,541.3,189,541.7,189z"/>
		<g>
			<path fill="#515151" d="M507.9,199.9h36.2c0.4,0,0.8-0.3,0.8-0.8v0c0-0.4-0.3-0.8-0.8-0.8h-36.2c-0.4,0-0.8,0.3-0.8,0.8v0
				C507.2,199.5,507.5,199.9,507.9,199.9z"/>
			<path fill="#515151" d="M507.9,204h36.2c0.4,0,0.8-0.3,0.8-0.8v0c0-0.4-0.3-0.8-0.8-0.8h-36.2c-0.4,0-0.8,0.3-0.8,0.8v0
				C507.2,203.6,507.5,204,507.9,204z"/>
			<path fill="#515151" d="M507.9,208.1h36.2c0.4,0,0.8-0.3,0.8-0.8v0c0-0.4-0.3-0.8-0.8-0.8h-36.2c-0.4,0-0.8,0.3-0.8,0.8v0
				C507.2,207.7,507.5,208.1,507.9,208.1z"/>
			<path fill="#515151" d="M507.9,212.2h36.2c0.4,0,0.8-0.3,0.8-0.8v0c0-0.4-0.3-0.8-0.8-0.8h-36.2c-0.4,0-0.8,0.3-0.8,0.8v0
				C507.2,211.8,507.5,212.2,507.9,212.2z"/>
			<path fill="#515151" d="M507.9,216.3h36.2c0.4,0,0.8-0.3,0.8-0.8v0c0-0.4-0.3-0.8-0.8-0.8h-36.2c-0.4,0-0.8,0.3-0.8,0.8v0
				C507.2,215.9,507.5,216.3,507.9,216.3z"/>
			<path fill="#515151" d="M507.9,220.3h36.2c0.4,0,0.8-0.3,0.8-0.8v0c0-0.4-0.3-0.8-0.8-0.8h-36.2c-0.4,0-0.8,0.3-0.8,0.8v0
				C507.2,220,507.5,220.3,507.9,220.3z"/>
			<path fill="#515151" d="M507.9,224.4h36.2c0.4,0,0.8-0.3,0.8-0.8v0c0-0.4-0.3-0.8-0.8-0.8h-36.2c-0.4,0-0.8,0.3-0.8,0.8v0
				C507.2,224.1,507.5,224.4,507.9,224.4z"/>
		</g>
		<path fill="#515151" d="M503,137.9h88.9c0.4,0,0.8-0.3,0.8-0.8l0,0c0-0.4-0.3-0.8-0.8-0.8H503c-0.4,0-0.8,0.3-0.8,0.8l0,0
			C502.2,137.6,502.6,137.9,503,137.9z"/>
		<path fill="#515151" d="M503,141.9h88.9c0.4,0,0.8-0.3,0.8-0.8v0c0-0.4-0.3-0.8-0.8-0.8l-88.9,0c-0.4,0-0.8,0.3-0.8,0.8v0
			C502.2,141.6,502.6,141.9,503,141.9z"/>
		<path fill="#515151" d="M503,146h88.9c0.4,0,0.8-0.3,0.8-0.8l0,0c0-0.4-0.3-0.8-0.8-0.8H503c-0.4,0-0.8,0.3-0.8,0.8l0,0
			C502.2,145.6,502.6,146,503,146z"/>
		<path fill="#515151" d="M503,150h88.9c0.4,0,0.8-0.3,0.8-0.8l0,0c0-0.4-0.3-0.8-0.8-0.8H503c-0.4,0-0.8,0.3-0.8,0.8l0,0
			C502.2,149.6,502.6,150,503,150z"/>
		<path fill="#96B9CC" d="M502.5,173.5c0,7.2,4.7,13.3,11.2,15.3c1.5,0.5,3.2,0.7,4.8,0.7c4.2,0,8-1.6,10.8-4.2
			c0.4-0.4,0.9-0.8,1.3-1.3c2.5-2.8,4-6.5,4-10.6c0-3-0.8-5.9-2.3-8.3c-1-1.6-2.2-3-3.6-4.1c-2.8-2.3-6.3-3.7-10.2-3.7
			C509.7,157.4,502.5,164.6,502.5,173.5z"/>
		<path fill="#6895A5" d="M502.5,173.5h16.1l8.9-1.9c0,0,2.8-3.7,4.8-6.4c-1-1.6-2.2-3-3.6-4.1c-2.8-2.3-6.3-3.7-10.2-3.7
			C509.7,157.4,502.5,164.6,502.5,173.5z"/>
		<path fill="#668F9E" d="M513.8,188.9c1.5,0.5,3.2,0.7,4.8,0.7c4.2,0,8-1.6,10.8-4.2c0.4-0.4,0.9-0.8,1.3-1.3
			c-0.8-0.9-4.4-6.9-4.3-7.8c0.1-0.9-0.6-3.9-1.9-3.8s-5.9,0.9-5.9,0.9L513.8,188.9z"/>
		<path fill="#79A4B7" d="M518.6,173.5l10.8,11.9c2.3-2.1,4-4.9,4.8-8.1c0.3-1.2,0.5-2.5,0.5-3.8c0-5-2.3-9.5-5.9-12.4L518.6,173.5z
			"/>
		<path fill="#C2E3F2" d="M518.6,173.5l10.8,11.9c2.3-2.1,4-4.9,4.8-8.1L518.6,173.5z"/>
		<g>
			
				<rect x="589.8" y="194.9" transform="matrix(-1 -4.491220e-11 4.491220e-11 -1 1182.4752 419.3812)" fill="#D35E5E" width="2.9" height="29.5"/>
			
				<rect x="584.5" y="199.4" transform="matrix(-1 -4.491220e-11 4.491220e-11 -1 1171.8085 423.8812)" fill="#D35E5E" width="2.9" height="25"/>
			
				<rect x="579.1" y="195.6" transform="matrix(-1 -4.491220e-11 4.491220e-11 -1 1161.1418 420.0479)" fill="#D35E5E" width="2.9" height="28.8"/>
			
				<rect x="573.8" y="216.3" transform="matrix(-1 -4.491220e-11 4.491220e-11 -1 1150.4752 440.7145)" fill="#D35E5E" width="2.9" height="8.2"/>
			
				<rect x="568.5" y="204.1" transform="matrix(-1 -4.491220e-11 4.491220e-11 -1 1139.8085 428.5479)" fill="#D35E5E" width="2.9" height="20.3"/>
			
				<rect x="563.1" y="201.6" transform="matrix(-1 -4.491220e-11 4.491220e-11 -1 1129.1418 426.0479)" fill="#D35E5E" width="2.9" height="22.8"/>
			
				<rect x="557.8" y="210.9" transform="matrix(-1 -4.491220e-11 4.491220e-11 -1 1118.4752 435.3812)" fill="#D35E5E" width="2.9" height="13.5"/>
			
				<rect x="552.5" y="213.5" transform="matrix(-1 -4.459822e-11 4.459822e-11 -1 1107.8085 437.9645)" fill="#D35E5E" width="2.9" height="10.9"/>
		</g>
		<polygon fill="#A8A8A8" points="546.2,144.5 546.2,235 492.7,235 492.7,124.5 523.6,124.5 546.2,144.5 		"/>
		<g>
			<polygon fill="#FCFCFC" points="538.4,150.5 538.4,270.5 431.5,270.5 431.5,130.5 515.8,130.5 518.8,133.1 			"/>
			<polygon fill="#C1C1C1" points="538.4,150.5 538.4,153.1 518.8,153.1 518.8,133.1 			"/>
			<polygon fill="#DDDDDD" points="538.4,150.5 515.8,150.5 515.8,130.5 			"/>
			<path fill="#515151" d="M508.6,143.9h-69.4c-0.4,0-0.8-0.3-0.8-0.8l0,0c0-0.4,0.3-0.8,0.8-0.8h69.4c0.4,0,0.8,0.3,0.8,0.8l0,0
				C509.4,143.6,509.1,143.9,508.6,143.9z"/>
			<path fill="#515151" d="M508.6,148.1h-69.4c-0.4,0-0.8-0.3-0.8-0.8l0,0c0-0.4,0.3-0.8,0.8-0.8h69.4c0.4,0,0.8,0.3,0.8,0.8l0,0
				C509.4,147.8,509.1,148.1,508.6,148.1z"/>
			<path fill="#515151" d="M508.6,152.4h-69.4c-0.4,0-0.8-0.3-0.8-0.8l0,0c0-0.4,0.3-0.8,0.8-0.8h69.4c0.4,0,0.8,0.3,0.8,0.8l0,0
				C509.4,152,509.1,152.4,508.6,152.4z"/>
			<path fill="#515151" d="M508.6,156.6h-69.4c-0.4,0-0.8-0.3-0.8-0.8l0,0c0-0.4,0.3-0.8,0.8-0.8h69.4c0.4,0,0.8,0.3,0.8,0.8l0,0
				C509.4,156.2,509.1,156.6,508.6,156.6z"/>
			<path fill="#515151" d="M508.6,160.8h-69.4c-0.4,0-0.8-0.3-0.8-0.8l0,0c0-0.4,0.3-0.8,0.8-0.8h69.4c0.4,0,0.8,0.3,0.8,0.8l0,0
				C509.4,160.4,509.1,160.8,508.6,160.8z"/>
			<path fill="#515151" d="M489.4,196.6h-50.2c-0.4,0-0.8-0.3-0.8-0.8l0,0c0-0.4,0.3-0.8,0.8-0.8h50.2c0.4,0,0.8,0.3,0.8,0.8l0,0
				C490.2,196.3,489.8,196.6,489.4,196.6z"/>
			<path fill="#515151" d="M489.4,201.3h-50.2c-0.4,0-0.8-0.3-0.8-0.8l0,0c0-0.4,0.3-0.8,0.8-0.8h50.2c0.4,0,0.8,0.3,0.8,0.8l0,0
				C490.2,200.9,489.8,201.3,489.4,201.3z"/>
			<path fill="#515151" d="M489.4,205.9h-50.2c-0.4,0-0.8-0.3-0.8-0.8l0,0c0-0.4,0.3-0.8,0.8-0.8h50.2c0.4,0,0.8,0.3,0.8,0.8l0,0
				C490.2,205.6,489.8,205.9,489.4,205.9z"/>
			<path fill="#515151" d="M489.4,210.6h-50.2c-0.4,0-0.8-0.3-0.8-0.8l0,0c0-0.4,0.3-0.8,0.8-0.8h50.2c0.4,0,0.8,0.3,0.8,0.8l0,0
				C490.2,210.2,489.8,210.6,489.4,210.6z"/>
			<path fill="#515151" d="M489.4,215.2h-50.2c-0.4,0-0.8-0.3-0.8-0.8l0,0c0-0.4,0.3-0.8,0.8-0.8h50.2c0.4,0,0.8,0.3,0.8,0.8l0,0
				C490.2,214.9,489.8,215.2,489.4,215.2z"/>
			<path fill="#515151" d="M489.4,219.9h-50.2c-0.4,0-0.8-0.3-0.8-0.8l0,0c0-0.4,0.3-0.8,0.8-0.8h50.2c0.4,0,0.8,0.3,0.8,0.8l0,0
				C490.2,219.5,489.8,219.9,489.4,219.9z"/>
			<path fill="#515151" d="M489.4,224.5h-50.2c-0.4,0-0.8-0.3-0.8-0.8l0,0c0-0.4,0.3-0.8,0.8-0.8h50.2c0.4,0,0.8,0.3,0.8,0.8l0,0
				C490.2,224.2,489.8,224.5,489.4,224.5z"/>
			<g>
				<path fill="#515151" d="M523.2,235.4h-36.2c-0.4,0-0.8-0.3-0.8-0.8l0,0c0-0.4,0.3-0.8,0.8-0.8h36.2c0.4,0,0.8,0.3,0.8,0.8l0,0
					C523.9,235.1,523.6,235.4,523.2,235.4z"/>
				<path fill="#515151" d="M523.2,239.5h-36.2c-0.4,0-0.8-0.3-0.8-0.8l0,0c0-0.4,0.3-0.8,0.8-0.8h36.2c0.4,0,0.8,0.3,0.8,0.8l0,0
					C523.9,239.2,523.6,239.5,523.2,239.5z"/>
				<path fill="#515151" d="M523.2,243.6h-36.2c-0.4,0-0.8-0.3-0.8-0.8l0,0c0-0.4,0.3-0.8,0.8-0.8h36.2c0.4,0,0.8,0.3,0.8,0.8l0,0
					C523.9,243.3,523.6,243.6,523.2,243.6z"/>
				<path fill="#515151" d="M523.2,247.7h-36.2c-0.4,0-0.8-0.3-0.8-0.8l0,0c0-0.4,0.3-0.8,0.8-0.8h36.2c0.4,0,0.8,0.3,0.8,0.8l0,0
					C523.9,247.4,523.6,247.7,523.2,247.7z"/>
				<path fill="#515151" d="M523.2,251.8h-36.2c-0.4,0-0.8-0.3-0.8-0.8l0,0c0-0.4,0.3-0.8,0.8-0.8h36.2c0.4,0,0.8,0.3,0.8,0.8l0,0
					C523.9,251.4,523.6,251.8,523.2,251.8z"/>
				<path fill="#515151" d="M523.2,255.9h-36.2c-0.4,0-0.8-0.3-0.8-0.8l0,0c0-0.4,0.3-0.8,0.8-0.8h36.2c0.4,0,0.8,0.3,0.8,0.8l0,0
					C523.9,255.5,523.6,255.9,523.2,255.9z"/>
				<path fill="#515151" d="M523.2,260h-36.2c-0.4,0-0.8-0.3-0.8-0.8l0,0c0-0.4,0.3-0.8,0.8-0.8h36.2c0.4,0,0.8,0.3,0.8,0.8l0,0
					C523.9,259.6,523.6,260,523.2,260z"/>
			</g>
			<path fill="#515151" d="M528.1,173.5h-88.9c-0.4,0-0.8-0.3-0.8-0.8l0,0c0-0.4,0.3-0.8,0.8-0.8h88.9c0.4,0,0.8,0.3,0.8,0.8l0,0
				C528.9,173.1,528.5,173.5,528.1,173.5z"/>
			<path fill="#515151" d="M528.1,177.5h-88.9c-0.4,0-0.8-0.3-0.8-0.8l0,0c0-0.4,0.3-0.8,0.8-0.8h88.9c0.4,0,0.8,0.3,0.8,0.8l0,0
				C528.9,177.1,528.5,177.5,528.1,177.5z"/>
			<path fill="#515151" d="M528.1,181.5h-88.9c-0.4,0-0.8-0.3-0.8-0.8l0,0c0-0.4,0.3-0.8,0.8-0.8h88.9c0.4,0,0.8,0.3,0.8,0.8l0,0
				C528.9,181.1,528.5,181.5,528.1,181.5z"/>
			<path fill="#515151" d="M528.1,185.5h-88.9c-0.4,0-0.8-0.3-0.8-0.8l0,0c0-0.4,0.3-0.8,0.8-0.8h88.9c0.4,0,0.8,0.3,0.8,0.8l0,0
				C528.9,185.2,528.5,185.5,528.1,185.5z"/>
			<path fill="#96B9CC" d="M528.6,209.1c0,7.2-4.7,13.3-11.2,15.3c-1.5,0.5-3.2,0.7-4.8,0.7c-4.2,0-8-1.6-10.8-4.2
				c-0.4-0.4-0.9-0.8-1.3-1.3c-2.5-2.8-4-6.5-4-10.6c0-3,0.8-5.9,2.3-8.3c1-1.6,2.2-3,3.6-4.1c2.8-2.3,6.3-3.7,10.2-3.7
				C521.4,193,528.6,200.2,528.6,209.1z"/>
			<path fill="#6895A5" d="M528.6,209.1h-16.1l-8.9-1.9c0,0-2.8-3.7-4.8-6.4c1-1.6,2.2-3,3.6-4.1c2.8-2.3,6.3-3.7,10.2-3.7
				C521.4,193,528.6,200.2,528.6,209.1z"/>
			<path fill="#668F9E" d="M517.3,224.4c-1.5,0.5-3.2,0.7-4.8,0.7c-4.2,0-8-1.6-10.8-4.2c-0.4-0.4-0.9-0.8-1.3-1.3
				c0.8-0.9,4.4-6.9,4.3-7.8c-0.1-0.9,0.6-3.9,1.9-3.8s5.9,0.9,5.9,0.9L517.3,224.4z"/>
			<path fill="#79A4B7" d="M512.5,209.1L501.7,221c-2.3-2.1-4-4.9-4.8-8.1c-0.3-1.2-0.5-2.5-0.5-3.8c0-5,2.3-9.5,5.9-12.4
				L512.5,209.1z"/>
			<path fill="#C2E3F2" d="M512.5,209.1L501.7,221c-2.3-2.1-4-4.9-4.8-8.1L512.5,209.1z"/>
			<g>
				<rect x="438.4" y="230.5" fill="#D35E5E" width="2.9" height="29.5"/>
				<rect x="443.7" y="235" fill="#D35E5E" width="2.9" height="25"/>
				<rect x="449.1" y="231.1" fill="#D35E5E" width="2.9" height="28.8"/>
				<rect x="454.4" y="251.8" fill="#D35E5E" width="2.9" height="8.2"/>
				<rect x="459.7" y="239.6" fill="#D35E5E" width="2.9" height="20.3"/>
				<rect x="465.1" y="237.1" fill="#D35E5E" width="2.9" height="22.8"/>
				<rect x="470.4" y="246.5" fill="#D35E5E" width="2.9" height="13.5"/>
				<rect x="475.7" y="249.1" fill="#D35E5E" width="2.9" height="10.9"/>
			</g>
		</g>
	</g>
	<circle fill="#E86464" cx="496.5" cy="407.8" r="7.6"/>
	<circle fill="#E86464" cx="627" cy="182.7" r="7.6"/>
	<circle fill="#E86464" cx="743.8" cy="182.7" r="7.6"/>
	<circle fill="#E86464" cx="843.3" cy="324" r="7.6"/>
	<circle fill="#E86464" cx="850.6" cy="468.9" r="7.6"/>
	<circle fill="#E86464" cx="954" cy="349.8" r="7.6"/>
	<g>
		<polygon fill-rule="evenodd" clip-rule="evenodd" fill="#898989" points="793.3,104.3 779.8,114 743.8,140 707.9,114 694.3,104.3 
			707.9,94.5 735.1,74.8 743.8,68.6 752.5,74.8 779.8,94.5 		"/>
		<rect x="707.9" y="74.8" fill-rule="evenodd" clip-rule="evenodd" fill="#FFFDFA" width="71.9" height="81.7"/>
		<path fill-rule="evenodd" clip-rule="evenodd" fill="#515151" d="M770.6,115.8H717c-0.5,0-0.8-0.4-0.8-0.8l0,0
			c0-0.5,0.4-0.8,0.8-0.8h53.6c0.5,0,0.8,0.4,0.8,0.8l0,0C771.4,115.5,771.1,115.8,770.6,115.8z"/>
		<path fill-rule="evenodd" clip-rule="evenodd" fill="#515151" d="M770.6,120H717c-0.5,0-0.8-0.4-0.8-0.8l0,0
			c0-0.5,0.4-0.8,0.8-0.8h53.6c0.5,0,0.8,0.4,0.8,0.8l0,0C771.4,119.6,771.1,120,770.6,120z"/>
		<path fill-rule="evenodd" clip-rule="evenodd" fill="#515151" d="M770.6,124.2H717c-0.5,0-0.8-0.4-0.8-0.8l0,0
			c0-0.5,0.4-0.8,0.8-0.8h53.6c0.5,0,0.8,0.4,0.8,0.8l0,0C771.4,123.8,771.1,124.2,770.6,124.2z"/>
		<path fill-rule="evenodd" clip-rule="evenodd" fill="#515151" d="M770.6,128.3H717c-0.5,0-0.8-0.4-0.8-0.8l0,0
			c0-0.5,0.4-0.8,0.8-0.8h53.6c0.5,0,0.8,0.4,0.8,0.8l0,0C771.4,128,771.1,128.3,770.6,128.3z"/>
		<polygon opacity="0.69" fill-rule="evenodd" clip-rule="evenodd" fill="#A8A8A8" points="779.8,108 779.8,156.6 707.9,156.6 
			707.9,108 743.8,133.9 		"/>
		<polygon fill-rule="evenodd" clip-rule="evenodd" fill="#D8D8D8" points="793.3,104.3 793.3,162.7 694.3,162.7 694.3,104.3 
			707.9,114 743.8,140 779.8,114 		"/>
		<polygon fill-rule="evenodd" clip-rule="evenodd" fill="#FCFCFC" points="694.4,162.7 793.3,162.7 752.8,133.5 734.8,133.5 
			734.8,133.5 		"/>
		<path fill-rule="evenodd" clip-rule="evenodd" fill="#515151" d="M770.6,82.5H717c-0.5,0-0.8-0.4-0.8-0.8l0,0
			c0-0.5,0.4-0.8,0.8-0.8h53.6c0.5,0,0.8,0.4,0.8,0.8l0,0C771.4,82.1,771.1,82.5,770.6,82.5z"/>
		<path fill-rule="evenodd" clip-rule="evenodd" fill="#515151" d="M770.6,86.7H717c-0.5,0-0.8-0.4-0.8-0.8l0,0
			c0-0.5,0.4-0.8,0.8-0.8h53.6c0.5,0,0.8,0.4,0.8,0.8l0,0C771.4,86.3,771.1,86.7,770.6,86.7z"/>
		<path fill-rule="evenodd" clip-rule="evenodd" fill="#515151" d="M770.6,90.8H717c-0.5,0-0.8-0.4-0.8-0.8l0,0
			c0-0.5,0.4-0.8,0.8-0.8h53.6c0.5,0,0.8,0.4,0.8,0.8l0,0C771.4,90.5,771.1,90.8,770.6,90.8z"/>
		<path fill-rule="evenodd" clip-rule="evenodd" fill="#515151" d="M770.6,95H717c-0.5,0-0.8-0.4-0.8-0.8l0,0c0-0.5,0.4-0.8,0.8-0.8
			h53.6c0.5,0,0.8,0.4,0.8,0.8l0,0C771.4,94.6,771.1,95,770.6,95z"/>
		<path fill-rule="evenodd" clip-rule="evenodd" fill="#515151" d="M770.6,99.2H717c-0.5,0-0.8-0.4-0.8-0.8l0,0
			c0-0.5,0.4-0.8,0.8-0.8h53.6c0.5,0,0.8,0.4,0.8,0.8l0,0C771.4,98.8,771.1,99.2,770.6,99.2z"/>
		<path fill-rule="evenodd" clip-rule="evenodd" fill="#515151" d="M770.6,103.3H717c-0.5,0-0.8-0.4-0.8-0.8l0,0
			c0-0.5,0.4-0.8,0.8-0.8h53.6c0.5,0,0.8,0.4,0.8,0.8l0,0C771.4,103,771.1,103.3,770.6,103.3z"/>
		<path fill-rule="evenodd" clip-rule="evenodd" fill="#515151" d="M770.6,107.5H717c-0.5,0-0.8-0.4-0.8-0.8l0,0
			c0-0.5,0.4-0.8,0.8-0.8h53.6c0.5,0,0.8,0.4,0.8,0.8l0,0C771.4,107.1,771.1,107.5,770.6,107.5z"/>
		<path fill-rule="evenodd" clip-rule="evenodd" fill="#515151" d="M770.6,111.7H717c-0.5,0-0.8-0.4-0.8-0.8l0,0
			c0-0.5,0.4-0.8,0.8-0.8h53.6c0.5,0,0.8,0.4,0.8,0.8l0,0C771.4,111.3,771.1,111.7,770.6,111.7z"/>
	</g>
	<polygon opacity="0.36" fill-rule="evenodd" clip-rule="evenodd" fill="#A8A8A8" points="743.8,68.6 743.8,162.7 694.3,162.7 
		694.3,104.3 707.9,94.5 707.9,74.8 735.1,74.8 	"/>
	<g>
		<path fill="#E86464" d="M698.7,270.7c-1.1,0-2-0.9-2-2v-13.9c0-9.9,8.1-18,18-18h13c7.7,0,14-6.3,14-14v-40c0-1.1,0.9-2,2-2
			s2,0.9,2,2v40c0,9.9-8.1,18-18,18h-13c-7.7,0-14,6.3-14,14v13.9C700.7,269.8,699.8,270.7,698.7,270.7z"/>
	</g>
	<g>
		<path fill="#E86464" d="M627,270.7c-1.1,0-2-0.9-2-2v-85.9c0-1.1,0.9-2,2-2s2,0.9,2,2v85.9C629,269.8,628.1,270.7,627,270.7z"/>
	</g>
	<g>
		<path fill="#E86464" d="M509.2,409.8h-12.7c-1.1,0-2-0.9-2-2s0.9-2,2-2h12.7c10,0,18.2-8.2,18.2-18.2V350
			c0-12.2,9.9-22.2,22.2-22.2H587c1.1,0,2,0.9,2,2s-0.9,2-2,2h-37.5c-10,0-18.2,8.2-18.2,18.2v37.6
			C531.3,399.9,521.4,409.8,509.2,409.8z"/>
	</g>
	<g>
		<path fill="#E86464" d="M825.3,354.7H748c-1.1,0-2-0.9-2-2s0.9-2,2-2h77.3c8.8,0,16-7.2,16-16V324c0-1.1,0.9-2,2-2s2,0.9,2,2v10.6
			C845.3,345.7,836.3,354.7,825.3,354.7z"/>
	</g>
	<g>
		<path fill="#E86464" d="M850.6,470.9c-1.1,0-2-0.9-2-2v-35.8c0-13.3-10.8-24-24-24h-82.4c-1.1,0-2-0.9-2-2s0.9-2,2-2h82.4
			c15.5,0,28,12.6,28,28v35.8C852.6,470,851.7,470.9,850.6,470.9z"/>
	</g>
	<g>
		<path fill="#E86464" d="M933.8,379.9H758.3c-1.1,0-2-0.9-2-2s0.9-2,2-2h175.4c10,0,18.2-8.2,18.2-18.2v-8c0-1.1,0.9-2,2-2
			s2,0.9,2,2v8C956,370,946,379.9,933.8,379.9z"/>
	</g>
</g>
</svg>
